<svg xmlns="http://www.w3.org/2000/svg" xmlns:xlink="http://www.w3.org/1999/xlink" width="54" zoomAndPan="magnify" viewBox="0 0 40.5 62.999997" height="84" preserveAspectRatio="xMidYMid meet" version="1.0"><defs><g/><clipPath id="269c2bb0a3"><path d="M 0.695312 0.792969 L 37.839844 0.792969 L 37.839844 40.8125 L 0.695312 40.8125 Z M 0.695312 0.792969 " clip-rule="nonzero"/></clipPath></defs><path fill="#2d9596" d="M 16.460938 18.140625 L 16.066406 18.140625 L 16.835938 21.855469 L 17.0625 21.855469 L 16.988281 20.34375 L 16.460938 18.140625 " fill-opacity="1" fill-rule="nonzero"/><path fill="#2d9596" d="M 16.460938 18.140625 L 16.460938 18.015625 L 16.066406 18.015625 C 16.027344 18.015625 15.992188 18.03125 15.96875 18.0625 C 15.941406 18.089844 15.933594 18.128906 15.941406 18.167969 L 16.710938 21.882812 C 16.722656 21.941406 16.773438 21.984375 16.835938 21.984375 L 17.0625 21.984375 C 17.097656 21.984375 17.132812 21.96875 17.15625 21.945312 C 17.179688 21.917969 17.191406 21.882812 17.191406 21.847656 L 17.117188 20.339844 L 17.113281 20.316406 L 16.585938 18.113281 C 16.570312 18.054688 16.519531 18.015625 16.460938 18.015625 L 16.460938 18.140625 L 16.335938 18.171875 L 16.859375 20.363281 L 16.929688 21.726562 L 16.835938 21.726562 L 16.835938 21.855469 L 16.960938 21.828125 L 16.222656 18.269531 L 16.460938 18.269531 L 16.460938 18.140625 L 16.335938 18.171875 L 16.460938 18.140625 " fill-opacity="1" fill-rule="nonzero"/><path fill="#2d9596" d="M 16.804688 18.140625 L 16.898438 18.53125 L 16.878906 18.140625 Z M 16.804688 18.140625 " fill-opacity="1" fill-rule="nonzero"/><path fill="#2d9596" d="M 16.804688 18.140625 L 16.679688 18.171875 L 16.773438 18.5625 C 16.789062 18.625 16.847656 18.667969 16.914062 18.660156 C 16.980469 18.648438 17.027344 18.59375 17.023438 18.527344 L 17.007812 18.136719 C 17.003906 18.066406 16.945312 18.015625 16.878906 18.015625 L 16.804688 18.015625 C 16.765625 18.015625 16.726562 18.03125 16.703125 18.0625 C 16.679688 18.09375 16.671875 18.132812 16.679688 18.171875 L 16.804688 18.140625 L 16.804688 18.269531 L 16.878906 18.269531 L 16.878906 18.140625 L 16.75 18.148438 L 16.769531 18.539062 L 16.898438 18.53125 L 17.019531 18.503906 L 16.929688 18.113281 L 16.804688 18.140625 L 16.804688 18.269531 L 16.804688 18.140625 " fill-opacity="1" fill-rule="nonzero"/><path fill="#2d9596" d="M 15.878906 10.476562 C 15.421875 10.511719 15.082031 10.914062 15.117188 11.375 L 15.257812 13.097656 L 15.261719 13.097656 C 15.261719 13.023438 15.3125 12.953125 15.386719 12.933594 C 15.476562 12.914062 15.566406 12.96875 15.589844 13.058594 L 15.597656 13.097656 L 16.625 13.097656 L 16.503906 10.6875 C 16.339844 10.539062 16.117188 10.457031 15.878906 10.476562 " fill-opacity="1" fill-rule="nonzero"/><path fill="#2d9596" d="M 15.878906 10.476562 L 15.871094 10.347656 C 15.367188 10.390625 14.988281 10.808594 14.988281 11.304688 C 14.988281 11.332031 14.988281 11.359375 14.992188 11.382812 L 15.132812 13.105469 C 15.136719 13.175781 15.191406 13.226562 15.257812 13.226562 L 15.261719 13.226562 C 15.296875 13.226562 15.328125 13.210938 15.355469 13.1875 C 15.378906 13.164062 15.390625 13.132812 15.390625 13.097656 L 15.398438 13.070312 L 15.417969 13.058594 L 15.425781 13.058594 C 15.441406 13.058594 15.460938 13.070312 15.464844 13.085938 L 15.472656 13.128906 C 15.488281 13.183594 15.539062 13.226562 15.597656 13.226562 L 16.625 13.226562 C 16.660156 13.226562 16.691406 13.210938 16.71875 13.183594 C 16.742188 13.160156 16.753906 13.125 16.753906 13.089844 L 16.632812 10.679688 C 16.628906 10.648438 16.613281 10.613281 16.589844 10.59375 C 16.417969 10.441406 16.191406 10.34375 15.949219 10.34375 C 15.921875 10.34375 15.894531 10.347656 15.867188 10.347656 L 15.871094 10.347656 L 15.878906 10.476562 L 15.890625 10.605469 C 15.910156 10.601562 15.929688 10.601562 15.949219 10.601562 C 16.128906 10.601562 16.292969 10.667969 16.417969 10.78125 L 16.503906 10.6875 L 16.375 10.695312 L 16.492188 12.96875 L 15.597656 12.96875 L 15.597656 13.097656 L 15.722656 13.066406 L 15.710938 13.027344 C 15.679688 12.890625 15.558594 12.800781 15.425781 12.800781 C 15.402344 12.800781 15.378906 12.804688 15.359375 12.808594 L 15.355469 12.808594 C 15.289062 12.828125 15.230469 12.867188 15.195312 12.917969 C 15.15625 12.96875 15.136719 13.03125 15.136719 13.097656 L 15.261719 13.097656 L 15.261719 12.96875 L 15.257812 12.96875 L 15.257812 13.097656 L 15.386719 13.085938 L 15.246094 11.363281 C 15.242188 11.34375 15.242188 11.324219 15.242188 11.304688 C 15.242188 10.941406 15.523438 10.632812 15.890625 10.605469 L 15.878906 10.476562 " fill-opacity="1" fill-rule="nonzero"/><path fill="#2d9596" d="M 15.726562 17.3125 C 15.816406 17.292969 15.902344 17.351562 15.921875 17.441406 L 15.929688 17.476562 L 16.304688 17.476562 L 15.414062 13.761719 L 15.3125 13.761719 L 15.609375 17.410156 C 15.632812 17.363281 15.671875 17.324219 15.726562 17.3125 " fill-opacity="1" fill-rule="nonzero"/><path fill="#2d9596" d="M 15.726562 17.3125 L 15.753906 17.4375 L 15.761719 17.4375 C 15.773438 17.4375 15.796875 17.449219 15.796875 17.46875 L 15.921875 17.441406 L 15.796875 17.46875 L 15.804688 17.5 C 15.816406 17.5625 15.867188 17.605469 15.929688 17.605469 L 16.304688 17.605469 C 16.34375 17.605469 16.378906 17.585938 16.402344 17.554688 C 16.429688 17.523438 16.4375 17.484375 16.425781 17.449219 L 15.539062 13.734375 C 15.523438 13.675781 15.472656 13.636719 15.414062 13.636719 L 15.3125 13.636719 C 15.277344 13.636719 15.242188 13.648438 15.21875 13.675781 C 15.195312 13.703125 15.183594 13.738281 15.183594 13.773438 L 15.480469 17.421875 C 15.488281 17.476562 15.53125 17.527344 15.585938 17.535156 C 15.644531 17.546875 15.703125 17.515625 15.726562 17.464844 C 15.734375 17.445312 15.742188 17.441406 15.753906 17.4375 L 15.699219 17.1875 C 15.597656 17.207031 15.527344 17.28125 15.492188 17.355469 L 15.609375 17.410156 L 15.738281 17.398438 L 15.441406 13.753906 L 15.3125 13.761719 L 15.3125 13.890625 L 16.140625 17.347656 L 15.929688 17.347656 L 15.929688 17.476562 L 16.054688 17.453125 L 16.046875 17.417969 C 16.019531 17.277344 15.898438 17.183594 15.761719 17.179688 C 15.738281 17.179688 15.71875 17.183594 15.699219 17.1875 L 15.726562 17.3125 L 15.699219 17.1875 L 15.726562 17.3125 " fill-opacity="1" fill-rule="nonzero"/><path fill="#2d9596" d="M 15.757812 13.761719 L 16.644531 17.476562 L 16.84375 17.476562 L 16.65625 13.761719 L 15.757812 13.761719 " fill-opacity="1" fill-rule="nonzero"/><path fill="#2d9596" d="M 15.757812 13.761719 L 15.632812 13.792969 L 16.519531 17.507812 C 16.535156 17.5625 16.585938 17.605469 16.644531 17.605469 L 16.84375 17.605469 C 16.878906 17.605469 16.914062 17.589844 16.9375 17.566406 C 16.960938 17.539062 16.972656 17.507812 16.972656 17.472656 L 16.785156 13.757812 C 16.78125 13.6875 16.726562 13.636719 16.65625 13.636719 L 15.757812 13.636719 C 15.714844 13.636719 15.679688 13.652344 15.65625 13.683594 C 15.632812 13.714844 15.621094 13.753906 15.632812 13.792969 L 15.757812 13.761719 L 15.757812 13.890625 L 16.535156 13.890625 L 16.710938 17.347656 L 16.644531 17.347656 L 16.644531 17.476562 L 16.769531 17.449219 L 15.878906 13.734375 L 15.757812 13.761719 L 15.757812 13.890625 L 15.757812 13.761719 " fill-opacity="1" fill-rule="nonzero"/><path fill="#2d9596" d="M 16.027344 22.523438 L 16.121094 23.675781 C 16.128906 23.773438 16.15625 23.859375 16.203125 23.9375 L 16.070312 22.523438 L 16.027344 22.523438 " fill-opacity="1" fill-rule="nonzero"/><path fill="#2d9596" d="M 16.027344 22.523438 L 15.898438 22.53125 L 15.992188 23.6875 C 16.003906 23.800781 16.039062 23.90625 16.089844 24 C 16.121094 24.050781 16.183594 24.078125 16.238281 24.058594 C 16.296875 24.039062 16.335938 23.984375 16.328125 23.925781 L 16.199219 22.511719 C 16.191406 22.445312 16.136719 22.394531 16.070312 22.394531 L 16.027344 22.394531 C 15.992188 22.394531 15.957031 22.410156 15.933594 22.4375 C 15.910156 22.460938 15.898438 22.496094 15.898438 22.53125 L 16.027344 22.523438 L 16.027344 22.648438 L 16.070312 22.648438 L 16.070312 22.523438 L 15.945312 22.535156 L 16.074219 23.949219 L 16.203125 23.9375 L 16.3125 23.875 C 16.277344 23.808594 16.253906 23.742188 16.25 23.667969 L 16.246094 23.664062 L 16.15625 22.511719 L 16.027344 22.523438 L 16.027344 22.648438 L 16.027344 22.523438 " fill-opacity="1" fill-rule="nonzero"/><path fill="#2d9596" d="M 16.339844 21.839844 L 16.34375 21.855469 L 16.496094 21.855469 L 15.726562 18.140625 L 15.667969 18.140625 L 15.972656 21.855469 L 16.011719 21.855469 C 16.011719 21.773438 16.074219 21.699219 16.160156 21.691406 C 16.25 21.683594 16.332031 21.75 16.339844 21.839844 " fill-opacity="1" fill-rule="nonzero"/><path fill="#2d9596" d="M 16.339844 21.839844 L 16.214844 21.851562 L 16.214844 21.867188 C 16.222656 21.933594 16.277344 21.984375 16.34375 21.984375 L 16.496094 21.984375 C 16.535156 21.984375 16.570312 21.964844 16.59375 21.9375 C 16.617188 21.90625 16.628906 21.867188 16.621094 21.828125 L 15.851562 18.117188 C 15.839844 18.058594 15.789062 18.015625 15.726562 18.015625 L 15.667969 18.015625 C 15.632812 18.015625 15.597656 18.03125 15.574219 18.054688 C 15.550781 18.082031 15.539062 18.117188 15.542969 18.152344 L 15.84375 21.867188 C 15.851562 21.933594 15.90625 21.984375 15.972656 21.984375 L 16.011719 21.984375 C 16.046875 21.984375 16.078125 21.96875 16.101562 21.945312 C 16.125 21.921875 16.136719 21.890625 16.136719 21.855469 C 16.140625 21.835938 16.152344 21.820312 16.171875 21.816406 L 16.160156 21.691406 L 16.167969 21.816406 L 16.171875 21.816406 L 16.203125 21.828125 L 16.214844 21.851562 L 16.46875 21.828125 C 16.460938 21.75 16.421875 21.683594 16.367188 21.636719 C 16.316406 21.589844 16.246094 21.5625 16.171875 21.5625 L 16.148438 21.5625 C 15.996094 21.578125 15.882812 21.707031 15.882812 21.855469 L 16.011719 21.855469 L 16.011719 21.726562 L 15.972656 21.726562 L 15.972656 21.855469 L 16.101562 21.84375 L 15.796875 18.132812 L 15.667969 18.140625 L 15.667969 18.269531 L 15.726562 18.269531 L 15.726562 18.140625 L 15.601562 18.167969 L 16.371094 21.882812 L 16.496094 21.855469 L 16.496094 21.726562 L 16.34375 21.726562 L 16.34375 21.855469 L 16.46875 21.84375 L 16.46875 21.828125 L 16.339844 21.839844 " fill-opacity="1" fill-rule="nonzero"/><path fill="#2d9596" d="M 17.097656 22.523438 L 16.972656 22.523438 L 17.136719 23.308594 Z M 17.097656 22.523438 " fill-opacity="1" fill-rule="nonzero"/><path fill="#2d9596" d="M 17.097656 22.523438 L 17.097656 22.394531 L 16.972656 22.394531 C 16.933594 22.394531 16.898438 22.410156 16.875 22.441406 C 16.851562 22.472656 16.839844 22.511719 16.847656 22.546875 L 17.011719 23.335938 C 17.023438 23.402344 17.085938 23.445312 17.152344 23.4375 C 17.21875 23.429688 17.265625 23.371094 17.261719 23.304688 L 17.226562 22.515625 C 17.222656 22.449219 17.167969 22.394531 17.097656 22.394531 L 17.097656 22.523438 L 16.96875 22.527344 L 17.007812 23.316406 L 17.136719 23.308594 L 17.261719 23.285156 L 17.097656 22.496094 L 16.972656 22.523438 L 16.972656 22.648438 L 17.097656 22.648438 L 17.097656 22.523438 L 16.96875 22.527344 L 17.097656 22.523438 " fill-opacity="1" fill-rule="nonzero"/><path fill="#2d9596" d="M 16.789062 24.261719 C 16.859375 24.261719 16.925781 24.242188 16.984375 24.21875 L 16.632812 22.523438 L 16.40625 22.523438 L 16.5625 24.234375 C 16.636719 24.253906 16.710938 24.265625 16.789062 24.261719 " fill-opacity="1" fill-rule="nonzero"/><path fill="#2d9596" d="M 16.789062 24.261719 L 16.796875 24.390625 C 16.882812 24.386719 16.960938 24.367188 17.03125 24.339844 C 17.089844 24.316406 17.121094 24.257812 17.109375 24.195312 L 16.757812 22.496094 C 16.746094 22.4375 16.695312 22.394531 16.632812 22.394531 L 16.40625 22.394531 C 16.371094 22.394531 16.335938 22.410156 16.3125 22.4375 C 16.285156 22.460938 16.273438 22.5 16.277344 22.535156 L 16.4375 24.246094 C 16.441406 24.296875 16.476562 24.339844 16.523438 24.355469 C 16.597656 24.378906 16.675781 24.390625 16.757812 24.390625 C 16.769531 24.390625 16.78125 24.390625 16.796875 24.390625 L 16.789062 24.261719 L 16.785156 24.136719 L 16.757812 24.136719 C 16.703125 24.136719 16.652344 24.128906 16.601562 24.109375 L 16.5625 24.234375 L 16.691406 24.222656 L 16.546875 22.648438 L 16.632812 22.648438 L 16.632812 22.523438 L 16.507812 22.546875 L 16.859375 24.246094 L 16.984375 24.21875 L 16.941406 24.101562 C 16.886719 24.121094 16.835938 24.132812 16.785156 24.136719 L 16.789062 24.261719 " fill-opacity="1" fill-rule="nonzero"/><path fill="#2d9596" d="M 23.25 13.097656 L 23.390625 11.375 C 23.429688 10.914062 23.089844 10.511719 22.628906 10.476562 C 22.394531 10.457031 22.175781 10.539062 22.011719 10.679688 L 21.890625 13.097656 L 22.953125 13.097656 L 22.960938 13.066406 C 22.980469 13 23.046875 12.957031 23.113281 12.976562 C 23.167969 12.988281 23.207031 13.039062 23.207031 13.097656 L 23.25 13.097656 " fill-opacity="1" fill-rule="nonzero"/><path fill="#2d9596" d="M 23.25 13.097656 L 23.378906 13.105469 L 23.519531 11.382812 C 23.519531 11.359375 23.523438 11.332031 23.523438 11.304688 C 23.523438 10.808594 23.140625 10.390625 22.640625 10.347656 C 22.613281 10.347656 22.589844 10.347656 22.5625 10.347656 C 22.320312 10.34375 22.097656 10.433594 21.929688 10.585938 C 21.902344 10.609375 21.886719 10.640625 21.886719 10.675781 L 21.765625 13.089844 C 21.761719 13.125 21.777344 13.160156 21.800781 13.183594 C 21.824219 13.210938 21.855469 13.226562 21.890625 13.226562 L 22.953125 13.226562 C 23.015625 13.226562 23.066406 13.183594 23.078125 13.128906 L 23.085938 13.097656 L 22.960938 13.066406 L 23.085938 13.097656 L 23.082031 13.089844 L 23.082031 13.097656 L 23.085938 13.097656 L 23.082031 13.089844 L 23.082031 13.097656 L 23.082031 13.082031 L 23.078125 13.097656 L 23.082031 13.097656 L 23.082031 13.082031 L 23.078125 13.097656 L 23.082031 13.097656 L 23.082031 13.09375 L 23.078125 13.097656 L 23.082031 13.097656 L 23.082031 13.09375 L 23.078125 13.097656 L 23.082031 13.09375 L 23.078125 13.09375 L 23.078125 13.097656 L 23.082031 13.09375 L 23.078125 13.09375 L 23.109375 13.09375 L 23.078125 13.09375 L 23.109375 13.09375 L 23.078125 13.09375 L 23.078125 13.105469 C 23.082031 13.171875 23.136719 13.226562 23.207031 13.226562 L 23.25 13.226562 C 23.316406 13.226562 23.375 13.175781 23.378906 13.105469 L 23.25 13.097656 L 23.25 12.96875 L 23.207031 12.96875 L 23.207031 13.097656 L 23.332031 13.089844 L 23.238281 13.09375 L 23.332031 13.09375 L 23.332031 13.089844 L 23.238281 13.09375 L 23.332031 13.09375 L 23.308594 13.09375 L 23.332031 13.097656 L 23.332031 13.09375 L 23.308594 13.09375 L 23.332031 13.097656 L 23.332031 13.09375 C 23.332031 12.980469 23.257812 12.878906 23.144531 12.851562 L 23.113281 12.976562 L 23.148438 12.851562 C 23.125 12.84375 23.101562 12.84375 23.082031 12.84375 C 22.96875 12.84375 22.867188 12.921875 22.839844 13.035156 L 22.835938 13.039062 L 22.832031 13.066406 L 22.953125 13.097656 L 22.953125 12.96875 L 22.027344 12.96875 L 22.140625 10.6875 L 22.011719 10.679688 L 22.097656 10.777344 C 22.222656 10.667969 22.386719 10.601562 22.5625 10.601562 C 22.582031 10.601562 22.601562 10.601562 22.621094 10.605469 C 22.988281 10.632812 23.265625 10.941406 23.265625 11.304688 C 23.265625 11.324219 23.265625 11.34375 23.265625 11.363281 L 23.125 13.085938 L 23.25 13.097656 L 23.25 12.96875 L 23.25 13.097656 " fill-opacity="1" fill-rule="nonzero"/><g clip-path="url(#269c2bb0a3)"><path fill="#2d9596" d="M 19.253906 0.917969 C 7.753906 0.917969 0.855469 3.816406 0.855469 15.761719 C 0.855469 19.363281 2.246094 23.277344 4.28125 26.984375 C 4.8125 27.957031 5.390625 28.914062 5.996094 29.847656 C 8.894531 34.324219 12.488281 38.265625 15.277344 40.65625 L 15.289062 40.039062 L 15.292969 39.84375 L 15.359375 36.472656 L 15.363281 36.242188 L 15.417969 33.351562 L 15.425781 32.96875 L 15.476562 30.304688 L 15.484375 29.925781 L 15.550781 26.609375 L 15.550781 26.359375 C 14.539062 26.128906 13.785156 25.226562 13.785156 24.144531 L 13.640625 22.523438 L 12.84375 22.523438 C 12.765625 22.734375 12.609375 22.917969 12.40625 23.050781 C 12.203125 23.1875 11.949219 23.273438 11.675781 23.285156 C 11.644531 23.289062 11.613281 23.289062 11.585938 23.289062 C 10.859375 23.289062 10.527344 23.324219 10.527344 22.191406 C 10.527344 21.050781 10.859375 21.089844 11.585938 21.089844 C 11.613281 21.089844 11.644531 21.089844 11.675781 21.09375 C 12.226562 21.121094 12.683594 21.433594 12.84375 21.855469 L 13.582031 21.855469 L 13.253906 18.140625 L 12.636719 18.140625 C 12.476562 18.5625 12.023438 18.875 11.476562 18.902344 L 11.476562 18.90625 C 11.445312 18.910156 11.417969 18.910156 11.386719 18.910156 L 11.261719 18.910156 C 10.621094 18.910156 10.332031 18.878906 10.332031 17.808594 C 10.332031 17.417969 10.371094 17.164062 10.453125 17.003906 C 10.605469 16.695312 10.910156 16.710938 11.386719 16.710938 C 11.417969 16.710938 11.445312 16.710938 11.476562 16.710938 L 11.476562 16.714844 C 12.023438 16.746094 12.476562 17.054688 12.636719 17.476562 L 13.195312 17.476562 L 12.867188 13.761719 L 12.441406 13.761719 C 12.285156 14.183594 11.832031 14.496094 11.28125 14.527344 C 11.253906 14.527344 11.222656 14.527344 11.191406 14.527344 C 10.46875 14.527344 10.136719 14.566406 10.136719 13.429688 C 10.136719 12.292969 10.46875 12.328125 11.191406 12.328125 C 11.222656 12.328125 11.253906 12.328125 11.28125 12.332031 C 11.832031 12.363281 12.285156 12.675781 12.441406 13.097656 L 12.808594 13.097656 L 12.53125 9.949219 C 12.53125 9.265625 12.488281 8.269531 13.746094 8.269531 C 13.746094 8.269531 14.246094 8.269531 15.035156 8.269531 C 15.792969 8.269531 17.398438 6.488281 19.144531 6.34375 L 19.144531 6.328125 C 19.183594 6.328125 19.21875 6.335938 19.253906 6.335938 C 19.292969 6.335938 19.328125 6.328125 19.367188 6.328125 L 19.367188 6.34375 C 21.113281 6.488281 22.71875 8.269531 23.476562 8.269531 C 24.265625 8.269531 24.765625 8.269531 24.765625 8.269531 C 26.023438 8.269531 25.980469 9.265625 25.980469 9.949219 L 25.699219 13.097656 L 26.066406 13.097656 C 26.226562 12.675781 26.679688 12.367188 27.226562 12.335938 L 27.226562 12.332031 C 27.257812 12.328125 27.285156 12.328125 27.316406 12.328125 C 27.789062 12.328125 28.089844 12.316406 28.246094 12.617188 C 28.332031 12.78125 28.371094 13.03125 28.371094 13.429688 C 28.371094 14.566406 28.042969 14.527344 27.316406 14.527344 C 27.285156 14.527344 27.257812 14.527344 27.226562 14.527344 L 27.226562 14.523438 C 26.679688 14.492188 26.226562 14.183594 26.066406 13.761719 L 25.640625 13.761719 L 25.3125 17.476562 L 25.875 17.476562 C 26.035156 17.054688 26.488281 16.746094 27.03125 16.714844 L 27.035156 16.710938 C 27.0625 16.710938 27.09375 16.710938 27.125 16.710938 C 27.441406 16.710938 27.683594 16.703125 27.855469 16.789062 C 28.074219 16.902344 28.179688 17.167969 28.179688 17.808594 C 28.179688 18.378906 28.097656 18.652344 27.921875 18.785156 C 27.75 18.917969 27.488281 18.910156 27.125 18.910156 C 27.09375 18.910156 27.0625 18.910156 27.035156 18.90625 L 27.03125 18.902344 C 26.488281 18.875 26.035156 18.5625 25.875 18.140625 L 25.253906 18.140625 L 24.925781 21.855469 L 25.664062 21.855469 C 25.828125 21.433594 26.285156 21.121094 26.835938 21.09375 C 26.863281 21.089844 26.894531 21.089844 26.925781 21.089844 C 27.652344 21.089844 27.980469 21.050781 27.980469 22.191406 C 27.980469 23.324219 27.652344 23.289062 26.925781 23.289062 C 26.894531 23.289062 26.863281 23.289062 26.835938 23.285156 C 26.285156 23.257812 25.828125 22.945312 25.664062 22.523438 L 24.867188 22.523438 L 24.726562 24.144531 C 24.726562 25.222656 23.972656 26.128906 22.960938 26.359375 L 22.960938 26.625 L 23.230469 40.65625 C 23.214844 40.667969 23.199219 40.683594 23.183594 40.695312 C 23.199219 40.683594 23.214844 40.667969 23.230469 40.65625 C 26.023438 38.265625 29.617188 34.320312 32.515625 29.847656 C 33.121094 28.914062 33.695312 27.957031 34.226562 26.984375 C 36.261719 23.277344 37.65625 19.363281 37.65625 15.761719 C 37.65625 3.816406 30.753906 0.917969 19.253906 0.917969 " fill-opacity="1" fill-rule="nonzero"/><path fill="#2d9596" d="M 19.253906 0.917969 L 19.253906 0.792969 C 16.375 0.792969 13.777344 0.972656 11.503906 1.433594 C 8.089844 2.125 5.386719 3.445312 3.546875 5.734375 C 1.703125 8.023438 0.726562 11.265625 0.726562 15.761719 C 0.726562 19.394531 2.128906 23.328125 4.171875 27.046875 C 4.703125 28.019531 5.28125 28.980469 5.886719 29.917969 C 8.792969 34.402344 12.394531 38.351562 15.195312 40.753906 C 15.234375 40.785156 15.285156 40.792969 15.332031 40.773438 C 15.375 40.75 15.40625 40.707031 15.40625 40.65625 L 15.417969 40.042969 L 15.421875 39.847656 L 15.488281 36.472656 L 15.492188 36.242188 L 15.546875 33.355469 L 15.554688 32.972656 L 15.605469 30.308594 L 15.613281 29.925781 L 15.675781 26.609375 L 15.675781 26.359375 C 15.675781 26.300781 15.636719 26.25 15.578125 26.238281 C 14.625 26.015625 13.910156 25.164062 13.910156 24.144531 L 13.910156 24.132812 L 13.769531 22.511719 C 13.761719 22.445312 13.707031 22.394531 13.640625 22.394531 L 12.84375 22.394531 C 12.792969 22.394531 12.742188 22.425781 12.726562 22.476562 C 12.65625 22.660156 12.519531 22.824219 12.335938 22.945312 C 12.152344 23.066406 11.921875 23.144531 11.667969 23.15625 L 11.65625 23.160156 C 11.636719 23.160156 11.613281 23.164062 11.585938 23.164062 C 11.539062 23.164062 11.5 23.164062 11.460938 23.164062 C 11.300781 23.164062 11.167969 23.160156 11.066406 23.144531 C 10.988281 23.128906 10.929688 23.109375 10.882812 23.082031 C 10.847656 23.058594 10.820312 23.03125 10.792969 22.992188 C 10.753906 22.933594 10.71875 22.847656 10.695312 22.714844 C 10.667969 22.582031 10.65625 22.410156 10.65625 22.191406 C 10.65625 21.929688 10.675781 21.734375 10.707031 21.597656 C 10.734375 21.496094 10.765625 21.421875 10.800781 21.375 C 10.828125 21.339844 10.859375 21.3125 10.894531 21.292969 C 10.949219 21.261719 11.019531 21.242188 11.113281 21.230469 C 11.207031 21.21875 11.320312 21.214844 11.457031 21.214844 C 11.496094 21.214844 11.539062 21.214844 11.585938 21.214844 C 11.613281 21.214844 11.640625 21.21875 11.660156 21.21875 L 11.675781 21.09375 L 11.546875 21.09375 C 11.546875 21.160156 11.597656 21.21875 11.667969 21.222656 C 12.175781 21.246094 12.585938 21.535156 12.726562 21.902344 C 12.742188 21.949219 12.792969 21.984375 12.84375 21.984375 L 13.582031 21.984375 C 13.617188 21.984375 13.652344 21.96875 13.675781 21.941406 C 13.699219 21.914062 13.714844 21.878906 13.710938 21.84375 L 13.382812 18.132812 C 13.375 18.066406 13.320312 18.015625 13.253906 18.015625 L 12.636719 18.015625 C 12.582031 18.015625 12.535156 18.046875 12.515625 18.097656 C 12.378906 18.460938 11.972656 18.75 11.46875 18.777344 C 11.441406 18.777344 11.414062 18.789062 11.390625 18.808594 L 11.390625 18.8125 L 11.476562 18.90625 L 11.457031 18.777344 C 11.441406 18.78125 11.417969 18.78125 11.386719 18.78125 L 11.261719 18.78125 C 11.101562 18.78125 10.96875 18.78125 10.867188 18.761719 C 10.789062 18.75 10.730469 18.730469 10.6875 18.699219 C 10.652344 18.679688 10.625 18.652344 10.597656 18.613281 C 10.554688 18.554688 10.519531 18.464844 10.496094 18.335938 C 10.472656 18.203125 10.457031 18.03125 10.457031 17.808594 C 10.457031 17.425781 10.5 17.191406 10.566406 17.0625 L 10.566406 17.058594 C 10.597656 17.003906 10.625 16.964844 10.664062 16.9375 C 10.714844 16.894531 10.785156 16.871094 10.886719 16.855469 C 10.988281 16.839844 11.117188 16.835938 11.269531 16.835938 C 11.308594 16.835938 11.347656 16.835938 11.386719 16.835938 C 11.417969 16.835938 11.441406 16.835938 11.464844 16.839844 L 11.476562 16.710938 L 11.390625 16.804688 L 11.390625 16.808594 C 11.414062 16.828125 11.441406 16.839844 11.46875 16.839844 C 11.972656 16.871094 12.378906 17.15625 12.515625 17.523438 C 12.535156 17.570312 12.582031 17.605469 12.636719 17.605469 L 13.195312 17.605469 C 13.230469 17.605469 13.265625 17.589844 13.289062 17.5625 C 13.316406 17.535156 13.328125 17.5 13.324219 17.464844 L 12.996094 13.75 C 12.992188 13.683594 12.933594 13.636719 12.867188 13.636719 L 12.441406 13.636719 C 12.390625 13.636719 12.34375 13.667969 12.324219 13.71875 C 12.1875 14.082031 11.78125 14.371094 11.273438 14.398438 L 11.269531 14.398438 C 11.25 14.402344 11.222656 14.402344 11.191406 14.402344 C 11.148438 14.402344 11.105469 14.402344 11.0625 14.402344 C 10.90625 14.402344 10.773438 14.398438 10.671875 14.382812 C 10.597656 14.367188 10.539062 14.347656 10.492188 14.320312 C 10.457031 14.296875 10.429688 14.269531 10.402344 14.230469 C 10.363281 14.171875 10.328125 14.085938 10.304688 13.953125 C 10.277344 13.824219 10.265625 13.648438 10.265625 13.429688 C 10.265625 13.167969 10.285156 12.976562 10.316406 12.835938 C 10.34375 12.734375 10.375 12.664062 10.410156 12.613281 C 10.4375 12.578125 10.46875 12.554688 10.503906 12.53125 C 10.558594 12.5 10.628906 12.480469 10.722656 12.46875 C 10.816406 12.457031 10.929688 12.457031 11.0625 12.457031 C 11.105469 12.457031 11.148438 12.457031 11.191406 12.457031 C 11.222656 12.457031 11.25 12.457031 11.269531 12.460938 L 11.273438 12.460938 C 11.78125 12.488281 12.1875 12.777344 12.320312 13.140625 C 12.339844 13.191406 12.386719 13.226562 12.441406 13.226562 L 12.808594 13.226562 C 12.84375 13.226562 12.878906 13.210938 12.902344 13.183594 C 12.925781 13.15625 12.941406 13.121094 12.9375 13.085938 L 12.660156 9.9375 L 12.53125 9.949219 L 12.660156 9.949219 C 12.660156 9.902344 12.660156 9.855469 12.660156 9.808594 C 12.660156 9.476562 12.671875 9.109375 12.8125 8.847656 C 12.878906 8.714844 12.976562 8.609375 13.121094 8.53125 C 13.265625 8.449219 13.46875 8.398438 13.746094 8.398438 C 13.746094 8.398438 13.871094 8.398438 14.09375 8.398438 C 14.316406 8.398438 14.640625 8.398438 15.035156 8.398438 C 15.15625 8.398438 15.277344 8.363281 15.40625 8.3125 C 15.632812 8.21875 15.882812 8.066406 16.160156 7.886719 C 16.574219 7.613281 17.046875 7.28125 17.558594 7.007812 C 18.066406 6.730469 18.609375 6.515625 19.15625 6.46875 C 19.222656 6.464844 19.273438 6.410156 19.273438 6.34375 L 19.273438 6.328125 L 19.144531 6.328125 L 19.144531 6.457031 C 19.167969 6.457031 19.203125 6.460938 19.25 6.464844 L 19.261719 6.464844 C 19.308594 6.460938 19.339844 6.457031 19.367188 6.457031 L 19.367188 6.328125 L 19.238281 6.328125 L 19.238281 6.34375 C 19.238281 6.410156 19.289062 6.464844 19.355469 6.46875 C 20.1875 6.539062 21.011719 7.007812 21.722656 7.46875 C 22.078125 7.699219 22.402344 7.925781 22.691406 8.101562 C 22.839844 8.1875 22.976562 8.261719 23.105469 8.3125 C 23.234375 8.363281 23.355469 8.398438 23.476562 8.398438 C 24.265625 8.398438 24.765625 8.398438 24.765625 8.398438 C 25.042969 8.398438 25.246094 8.449219 25.390625 8.53125 C 25.5 8.589844 25.578125 8.664062 25.640625 8.753906 C 25.738281 8.890625 25.789062 9.058594 25.820312 9.242188 C 25.847656 9.429688 25.851562 9.625 25.851562 9.8125 C 25.851562 9.859375 25.851562 9.902344 25.851562 9.949219 L 25.980469 9.949219 L 25.851562 9.9375 L 25.574219 13.085938 C 25.570312 13.121094 25.582031 13.15625 25.605469 13.183594 C 25.632812 13.210938 25.664062 13.226562 25.699219 13.226562 L 26.066406 13.226562 C 26.117188 13.226562 26.167969 13.191406 26.183594 13.140625 C 26.320312 12.777344 26.730469 12.488281 27.230469 12.460938 C 27.265625 12.460938 27.292969 12.445312 27.316406 12.425781 L 27.316406 12.421875 L 27.226562 12.332031 L 27.238281 12.460938 C 27.261719 12.457031 27.285156 12.457031 27.316406 12.457031 C 27.355469 12.457031 27.394531 12.457031 27.433594 12.457031 C 27.636719 12.457031 27.792969 12.460938 27.902344 12.492188 C 27.960938 12.507812 28 12.527344 28.039062 12.558594 C 28.074219 12.585938 28.105469 12.621094 28.132812 12.675781 C 28.199219 12.804688 28.246094 13.039062 28.242188 13.429688 C 28.242188 13.691406 28.226562 13.882812 28.191406 14.023438 C 28.167969 14.125 28.132812 14.195312 28.097656 14.242188 C 28.070312 14.28125 28.039062 14.304688 28.003906 14.324219 C 27.953125 14.355469 27.878906 14.378906 27.785156 14.386719 C 27.691406 14.398438 27.578125 14.402344 27.445312 14.402344 C 27.402344 14.402344 27.359375 14.402344 27.316406 14.402344 C 27.285156 14.402344 27.261719 14.402344 27.238281 14.398438 L 27.226562 14.527344 L 27.316406 14.433594 C 27.292969 14.410156 27.261719 14.398438 27.230469 14.398438 C 26.730469 14.367188 26.320312 14.082031 26.1875 13.71875 C 26.167969 13.667969 26.121094 13.636719 26.066406 13.636719 L 25.640625 13.636719 C 25.574219 13.636719 25.519531 13.683594 25.515625 13.75 L 25.1875 17.464844 C 25.183594 17.5 25.195312 17.535156 25.21875 17.5625 C 25.242188 17.589844 25.277344 17.605469 25.3125 17.605469 L 25.875 17.605469 C 25.929688 17.605469 25.976562 17.570312 25.996094 17.523438 C 26.132812 17.15625 26.539062 16.871094 27.039062 16.839844 C 27.070312 16.839844 27.101562 16.828125 27.121094 16.804688 L 27.125 16.804688 L 27.035156 16.710938 L 27.046875 16.839844 C 27.070312 16.835938 27.09375 16.835938 27.125 16.835938 C 27.167969 16.835938 27.210938 16.835938 27.25 16.835938 C 27.378906 16.835938 27.488281 16.839844 27.578125 16.847656 C 27.671875 16.859375 27.742188 16.875 27.796875 16.902344 L 27.796875 16.90625 C 27.835938 16.925781 27.871094 16.949219 27.898438 16.988281 C 27.941406 17.042969 27.980469 17.125 28.007812 17.261719 C 28.035156 17.394531 28.050781 17.574219 28.050781 17.808594 C 28.050781 18.085938 28.03125 18.289062 27.992188 18.425781 C 27.953125 18.566406 27.90625 18.636719 27.84375 18.683594 C 27.792969 18.726562 27.722656 18.75 27.621094 18.765625 C 27.519531 18.78125 27.394531 18.78125 27.242188 18.78125 C 27.203125 18.78125 27.164062 18.78125 27.125 18.78125 C 27.09375 18.78125 27.070312 18.78125 27.054688 18.777344 L 27.035156 18.90625 L 27.125 18.816406 L 27.121094 18.8125 C 27.101562 18.792969 27.070312 18.777344 27.039062 18.777344 C 26.539062 18.75 26.132812 18.460938 25.996094 18.097656 C 25.976562 18.046875 25.925781 18.015625 25.875 18.015625 L 25.253906 18.015625 C 25.1875 18.015625 25.132812 18.066406 25.128906 18.132812 L 24.800781 21.84375 C 24.796875 21.878906 24.808594 21.914062 24.832031 21.941406 C 24.859375 21.96875 24.890625 21.984375 24.925781 21.984375 L 25.664062 21.984375 C 25.71875 21.984375 25.765625 21.949219 25.785156 21.902344 C 25.921875 21.535156 26.335938 21.246094 26.839844 21.222656 C 26.910156 21.21875 26.960938 21.160156 26.960938 21.09375 L 26.835938 21.09375 L 26.847656 21.21875 C 26.871094 21.21875 26.894531 21.214844 26.925781 21.214844 C 26.96875 21.214844 27.011719 21.214844 27.054688 21.214844 C 27.210938 21.214844 27.34375 21.21875 27.445312 21.238281 C 27.523438 21.25 27.578125 21.269531 27.625 21.300781 C 27.660156 21.320312 27.6875 21.347656 27.714844 21.386719 C 27.753906 21.445312 27.789062 21.535156 27.816406 21.667969 C 27.839844 21.796875 27.851562 21.96875 27.851562 22.191406 C 27.851562 22.453125 27.832031 22.644531 27.800781 22.78125 C 27.777344 22.886719 27.742188 22.957031 27.707031 23.003906 C 27.679688 23.039062 27.648438 23.066406 27.613281 23.085938 C 27.558594 23.117188 27.488281 23.140625 27.394531 23.148438 C 27.296875 23.160156 27.183594 23.164062 27.050781 23.164062 C 27.007812 23.164062 26.96875 23.164062 26.925781 23.164062 C 26.894531 23.164062 26.871094 23.160156 26.851562 23.160156 L 26.839844 23.15625 C 26.335938 23.132812 25.921875 22.84375 25.785156 22.476562 C 25.765625 22.425781 25.71875 22.394531 25.664062 22.394531 L 24.867188 22.394531 C 24.800781 22.394531 24.746094 22.445312 24.742188 22.511719 L 24.597656 24.132812 L 24.597656 24.144531 C 24.597656 25.164062 23.886719 26.015625 22.933594 26.238281 C 22.875 26.25 22.832031 26.300781 22.832031 26.359375 L 22.832031 26.625 L 23.101562 40.660156 L 23.230469 40.65625 L 23.148438 40.558594 C 23.132812 40.570312 23.117188 40.585938 23.101562 40.597656 C 23.058594 40.632812 23.042969 40.691406 23.0625 40.742188 C 23.082031 40.792969 23.128906 40.824219 23.183594 40.824219 C 23.214844 40.824219 23.242188 40.8125 23.265625 40.792969 C 23.28125 40.78125 23.296875 40.765625 23.316406 40.753906 C 26.117188 38.351562 29.714844 34.402344 32.625 29.917969 C 33.230469 28.980469 33.808594 28.019531 34.339844 27.046875 C 36.378906 23.328125 37.78125 19.394531 37.78125 15.761719 C 37.78125 12.761719 37.351562 10.324219 36.515625 8.351562 C 35.261719 5.394531 33.097656 3.492188 30.175781 2.347656 C 27.253906 1.199219 23.574219 0.792969 19.253906 0.792969 L 19.253906 1.046875 C 22.125 1.046875 24.703125 1.226562 26.957031 1.683594 C 30.335938 2.367188 32.972656 3.667969 34.765625 5.894531 C 36.5625 8.125 37.527344 11.296875 37.527344 15.761719 C 37.527344 19.328125 36.144531 23.226562 34.117188 26.921875 C 33.585938 27.890625 33.011719 28.847656 32.410156 29.777344 C 29.519531 34.242188 25.929688 38.175781 23.148438 40.558594 C 23.132812 40.570312 23.117188 40.585938 23.101562 40.597656 L 23.183594 40.695312 L 23.183594 40.570312 L 23.183594 40.695312 L 23.265625 40.792969 C 23.28125 40.78125 23.296875 40.765625 23.3125 40.753906 C 23.34375 40.726562 23.359375 40.691406 23.359375 40.652344 L 23.089844 26.621094 L 22.960938 26.625 L 23.089844 26.625 L 23.089844 26.359375 L 22.960938 26.359375 L 22.988281 26.484375 C 24.058594 26.242188 24.855469 25.285156 24.855469 24.144531 L 24.726562 24.144531 L 24.855469 24.152344 L 24.984375 22.648438 L 25.664062 22.648438 L 25.664062 22.523438 L 25.546875 22.566406 C 25.730469 23.046875 26.234375 23.382812 26.828125 23.414062 L 26.835938 23.285156 L 26.816406 23.410156 C 26.859375 23.417969 26.894531 23.417969 26.925781 23.417969 C 26.96875 23.417969 27.007812 23.417969 27.050781 23.417969 C 27.210938 23.417969 27.351562 23.417969 27.484375 23.394531 C 27.582031 23.378906 27.675781 23.347656 27.761719 23.296875 C 27.824219 23.257812 27.878906 23.203125 27.925781 23.136719 C 27.992188 23.039062 28.039062 22.914062 28.066406 22.761719 C 28.09375 22.605469 28.109375 22.421875 28.109375 22.191406 C 28.109375 21.917969 28.089844 21.707031 28.050781 21.539062 C 28.019531 21.410156 27.972656 21.308594 27.910156 21.222656 C 27.863281 21.160156 27.804688 21.109375 27.742188 21.070312 C 27.644531 21.015625 27.539062 20.988281 27.425781 20.976562 C 27.3125 20.960938 27.1875 20.960938 27.054688 20.960938 C 27.011719 20.960938 26.96875 20.960938 26.925781 20.960938 C 26.894531 20.960938 26.859375 20.960938 26.820312 20.964844 C 26.757812 20.972656 26.707031 21.027344 26.707031 21.09375 L 26.835938 21.09375 L 26.828125 20.964844 C 26.234375 20.996094 25.730469 21.332031 25.546875 21.808594 L 25.664062 21.855469 L 25.664062 21.726562 L 25.066406 21.726562 L 25.371094 18.269531 L 25.875 18.269531 L 25.875 18.140625 L 25.753906 18.1875 C 25.9375 18.664062 26.4375 18.996094 27.027344 19.03125 L 27.03125 18.902344 L 26.941406 18.996094 L 26.945312 18.996094 C 26.964844 19.015625 26.988281 19.027344 27.015625 19.03125 C 27.058594 19.039062 27.09375 19.039062 27.125 19.039062 C 27.164062 19.039062 27.203125 19.039062 27.242188 19.039062 C 27.394531 19.039062 27.53125 19.035156 27.65625 19.019531 C 27.78125 19 27.898438 18.964844 28 18.886719 C 28.113281 18.800781 28.191406 18.667969 28.238281 18.496094 C 28.285156 18.320312 28.308594 18.101562 28.308594 17.808594 C 28.304688 17.480469 28.28125 17.246094 28.21875 17.0625 C 28.191406 16.96875 28.148438 16.890625 28.097656 16.828125 C 28.046875 16.761719 27.980469 16.710938 27.914062 16.675781 L 27.855469 16.789062 L 27.914062 16.675781 C 27.820312 16.628906 27.714844 16.605469 27.605469 16.59375 C 27.496094 16.582031 27.378906 16.582031 27.25 16.582031 C 27.207031 16.582031 27.167969 16.582031 27.125 16.582031 C 27.09375 16.582031 27.058594 16.582031 27.023438 16.585938 C 26.992188 16.589844 26.964844 16.601562 26.945312 16.621094 L 26.941406 16.625 L 27.03125 16.714844 L 27.023438 16.585938 C 26.4375 16.621094 25.9375 16.953125 25.753906 17.433594 L 25.875 17.476562 L 25.875 17.347656 L 25.453125 17.347656 L 25.757812 13.890625 L 26.066406 13.890625 L 26.066406 13.761719 L 25.949219 13.808594 C 26.128906 14.285156 26.628906 14.617188 27.21875 14.652344 L 27.226562 14.523438 L 27.136719 14.613281 L 27.136719 14.617188 C 27.15625 14.636719 27.183594 14.648438 27.214844 14.652344 C 27.253906 14.65625 27.285156 14.65625 27.316406 14.65625 C 27.359375 14.65625 27.402344 14.65625 27.445312 14.65625 C 27.605469 14.65625 27.746094 14.65625 27.878906 14.632812 C 27.976562 14.617188 28.070312 14.585938 28.152344 14.535156 C 28.21875 14.492188 28.273438 14.441406 28.316406 14.375 C 28.386719 14.277344 28.429688 14.152344 28.457031 14 C 28.488281 13.847656 28.5 13.660156 28.5 13.429688 C 28.5 13.023438 28.460938 12.753906 28.359375 12.558594 C 28.316406 12.476562 28.261719 12.40625 28.195312 12.355469 C 28.09375 12.277344 27.976562 12.238281 27.851562 12.222656 C 27.722656 12.203125 27.585938 12.203125 27.433594 12.203125 C 27.394531 12.203125 27.355469 12.203125 27.316406 12.203125 C 27.285156 12.203125 27.253906 12.203125 27.214844 12.207031 C 27.183594 12.207031 27.15625 12.222656 27.136719 12.242188 L 27.226562 12.335938 L 27.21875 12.207031 C 26.628906 12.242188 26.128906 12.574219 25.945312 13.050781 L 26.066406 13.097656 L 26.066406 12.96875 L 25.839844 12.96875 L 26.105469 9.960938 L 26.105469 9.949219 C 26.105469 9.90625 26.105469 9.859375 26.105469 9.8125 C 26.105469 9.476562 26.101562 9.070312 25.925781 8.730469 C 25.839844 8.5625 25.703125 8.410156 25.511719 8.304688 C 25.320312 8.199219 25.074219 8.144531 24.765625 8.144531 C 24.765625 8.144531 24.265625 8.144531 23.476562 8.144531 C 23.40625 8.144531 23.3125 8.121094 23.199219 8.078125 C 23.007812 7.996094 22.765625 7.851562 22.492188 7.671875 C 22.082031 7.402344 21.601562 7.066406 21.074219 6.78125 C 20.546875 6.496094 19.976562 6.265625 19.375 6.214844 L 19.367188 6.34375 L 19.492188 6.34375 L 19.492188 6.328125 C 19.492188 6.292969 19.480469 6.261719 19.457031 6.238281 C 19.433594 6.214844 19.398438 6.199219 19.367188 6.199219 C 19.316406 6.203125 19.277344 6.207031 19.25 6.207031 L 19.253906 6.335938 L 19.261719 6.207031 C 19.234375 6.207031 19.195312 6.203125 19.144531 6.199219 C 19.109375 6.199219 19.078125 6.214844 19.054688 6.238281 C 19.03125 6.261719 19.015625 6.292969 19.015625 6.328125 L 19.015625 6.34375 L 19.144531 6.34375 L 19.132812 6.214844 C 18.21875 6.292969 17.367188 6.789062 16.648438 7.253906 C 16.292969 7.488281 15.964844 7.714844 15.6875 7.878906 C 15.546875 7.964844 15.421875 8.03125 15.308594 8.078125 C 15.199219 8.121094 15.105469 8.144531 15.035156 8.144531 C 14.640625 8.144531 14.316406 8.144531 14.09375 8.144531 C 13.871094 8.144531 13.746094 8.144531 13.746094 8.144531 C 13.4375 8.144531 13.191406 8.199219 13 8.304688 C 12.855469 8.382812 12.742188 8.488281 12.660156 8.605469 C 12.535156 8.785156 12.472656 8.992188 12.441406 9.199219 C 12.40625 9.410156 12.40625 9.617188 12.40625 9.808594 C 12.40625 9.855469 12.40625 9.902344 12.40625 9.949219 L 12.40625 9.960938 L 12.667969 12.96875 L 12.441406 12.96875 L 12.441406 13.097656 L 12.5625 13.050781 C 12.378906 12.574219 11.882812 12.238281 11.289062 12.203125 L 11.28125 12.332031 L 11.296875 12.207031 C 11.257812 12.203125 11.222656 12.203125 11.191406 12.203125 C 11.148438 12.203125 11.105469 12.203125 11.0625 12.203125 C 10.902344 12.203125 10.761719 12.203125 10.628906 12.226562 C 10.53125 12.242188 10.4375 12.269531 10.355469 12.324219 C 10.292969 12.363281 10.238281 12.417969 10.191406 12.484375 C 10.125 12.582031 10.082031 12.707031 10.050781 12.859375 C 10.023438 13.015625 10.011719 13.199219 10.011719 13.429688 C 10.011719 13.703125 10.027344 13.914062 10.070312 14.082031 C 10.101562 14.207031 10.144531 14.3125 10.207031 14.394531 C 10.253906 14.460938 10.3125 14.511719 10.375 14.546875 C 10.472656 14.601562 10.578125 14.628906 10.691406 14.640625 C 10.804688 14.65625 10.929688 14.65625 11.0625 14.65625 C 11.105469 14.65625 11.148438 14.65625 11.191406 14.65625 C 11.222656 14.65625 11.257812 14.65625 11.296875 14.652344 L 11.28125 14.527344 L 11.289062 14.652344 C 11.882812 14.621094 12.378906 14.285156 12.5625 13.808594 L 12.441406 13.761719 L 12.441406 13.890625 L 12.75 13.890625 L 13.058594 17.347656 L 12.636719 17.347656 L 12.636719 17.476562 L 12.753906 17.433594 C 12.570312 16.953125 12.074219 16.621094 11.484375 16.585938 L 11.476562 16.714844 L 11.5625 16.621094 L 11.5625 16.617188 C 11.542969 16.601562 11.515625 16.585938 11.488281 16.585938 C 11.449219 16.582031 11.417969 16.582031 11.386719 16.582031 C 11.347656 16.582031 11.308594 16.582031 11.269531 16.582031 C 11.0625 16.582031 10.886719 16.582031 10.726562 16.628906 C 10.644531 16.648438 10.570312 16.683594 10.503906 16.738281 C 10.4375 16.789062 10.378906 16.859375 10.339844 16.945312 C 10.242188 17.140625 10.203125 17.40625 10.203125 17.808594 C 10.203125 18.082031 10.222656 18.292969 10.261719 18.464844 C 10.292969 18.589844 10.335938 18.695312 10.402344 18.777344 C 10.449219 18.839844 10.507812 18.890625 10.570312 18.929688 C 10.667969 18.984375 10.773438 19.011719 10.890625 19.023438 C 11.003906 19.035156 11.125 19.039062 11.261719 19.039062 L 11.386719 19.039062 C 11.417969 19.039062 11.453125 19.039062 11.496094 19.03125 C 11.519531 19.027344 11.542969 19.015625 11.5625 19 L 11.476562 18.902344 L 11.484375 19.03125 C 12.074219 18.996094 12.570312 18.664062 12.753906 18.1875 L 12.636719 18.140625 L 12.636719 18.269531 L 13.136719 18.269531 L 13.441406 21.726562 L 12.84375 21.726562 L 12.84375 21.855469 L 12.964844 21.808594 C 12.78125 21.332031 12.273438 20.996094 11.679688 20.964844 L 11.675781 21.09375 L 11.800781 21.09375 C 11.800781 21.027344 11.75 20.972656 11.6875 20.964844 C 11.648438 20.960938 11.613281 20.960938 11.585938 20.960938 C 11.539062 20.960938 11.496094 20.960938 11.457031 20.960938 C 11.292969 20.960938 11.152344 20.960938 11.019531 20.984375 C 10.921875 21 10.828125 21.03125 10.746094 21.085938 C 10.683594 21.125 10.625 21.179688 10.582031 21.246094 C 10.515625 21.34375 10.46875 21.464844 10.441406 21.621094 C 10.414062 21.773438 10.402344 21.960938 10.402344 22.191406 C 10.402344 22.464844 10.417969 22.675781 10.460938 22.84375 C 10.492188 22.96875 10.535156 23.074219 10.597656 23.160156 C 10.644531 23.222656 10.703125 23.273438 10.769531 23.308594 C 10.863281 23.363281 10.972656 23.390625 11.085938 23.402344 C 11.199219 23.417969 11.324219 23.417969 11.460938 23.417969 C 11.5 23.417969 11.542969 23.417969 11.585938 23.417969 C 11.613281 23.417969 11.648438 23.417969 11.691406 23.410156 L 11.675781 23.285156 L 11.679688 23.414062 C 11.976562 23.398438 12.253906 23.308594 12.476562 23.160156 C 12.699219 23.011719 12.875 22.808594 12.964844 22.566406 L 12.84375 22.523438 L 12.84375 22.648438 L 13.523438 22.648438 L 13.65625 24.152344 L 13.785156 24.144531 L 13.65625 24.144531 C 13.65625 25.285156 14.453125 26.242188 15.519531 26.484375 L 15.550781 26.359375 L 15.421875 26.359375 L 15.421875 26.609375 L 15.550781 26.609375 L 15.421875 26.605469 L 15.359375 29.921875 L 15.351562 30.304688 L 15.300781 32.96875 L 15.292969 33.347656 L 15.238281 36.238281 L 15.230469 36.46875 L 15.167969 39.839844 L 15.164062 40.035156 L 15.152344 40.652344 L 15.277344 40.65625 L 15.363281 40.558594 C 12.582031 38.179688 8.992188 34.242188 6.101562 29.777344 C 5.496094 28.847656 4.921875 27.890625 4.394531 26.921875 C 2.367188 23.226562 0.980469 19.328125 0.984375 15.761719 C 0.984375 12.785156 1.414062 10.382812 2.230469 8.453125 C 3.457031 5.558594 5.554688 3.714844 8.425781 2.585938 C 11.300781 1.453125 14.949219 1.046875 19.253906 1.046875 L 19.253906 0.917969 " fill-opacity="1" fill-rule="nonzero"/></g><path fill="#2d9596" d="M 21.609375 18.722656 L 21.75 18.140625 L 21.640625 18.140625 Z M 21.609375 18.722656 " fill-opacity="1" fill-rule="nonzero"/><path fill="#2d9596" d="M 21.609375 18.722656 L 21.734375 18.75 L 21.871094 18.171875 C 21.882812 18.132812 21.875 18.09375 21.847656 18.0625 C 21.824219 18.03125 21.789062 18.015625 21.75 18.015625 L 21.640625 18.015625 C 21.570312 18.015625 21.515625 18.066406 21.511719 18.136719 L 21.484375 18.714844 C 21.480469 18.78125 21.527344 18.839844 21.59375 18.847656 C 21.65625 18.859375 21.71875 18.816406 21.734375 18.75 L 21.609375 18.722656 L 21.738281 18.730469 L 21.765625 18.148438 L 21.640625 18.140625 L 21.640625 18.269531 L 21.75 18.269531 L 21.75 18.140625 L 21.625 18.113281 L 21.484375 18.691406 L 21.609375 18.722656 L 21.738281 18.730469 L 21.609375 18.722656 " fill-opacity="1" fill-rule="nonzero"/><path fill="#2d9596" d="M 21.671875 17.476562 L 21.90625 17.476562 L 22.796875 13.761719 L 21.859375 13.761719 L 21.671875 17.476562 " fill-opacity="1" fill-rule="nonzero"/><path fill="#2d9596" d="M 21.671875 17.476562 L 21.671875 17.605469 L 21.90625 17.605469 C 21.96875 17.605469 22.019531 17.5625 22.03125 17.507812 L 22.921875 13.792969 C 22.929688 13.753906 22.921875 13.714844 22.898438 13.683594 C 22.871094 13.652344 22.835938 13.636719 22.796875 13.636719 L 21.859375 13.636719 C 21.792969 13.636719 21.734375 13.6875 21.730469 13.757812 L 21.546875 17.472656 C 21.542969 17.507812 21.554688 17.539062 21.582031 17.566406 C 21.605469 17.589844 21.636719 17.605469 21.671875 17.605469 L 21.671875 17.476562 L 21.800781 17.484375 L 21.980469 13.890625 L 22.632812 13.890625 L 21.808594 17.347656 L 21.671875 17.347656 L 21.671875 17.476562 L 21.800781 17.484375 L 21.671875 17.476562 " fill-opacity="1" fill-rule="nonzero"/><path fill="#2d9596" d="M 21.355469 23.808594 C 21.4375 23.402344 21.53125 22.964844 21.621094 22.523438 L 21.417969 22.523438 L 21.355469 23.808594 " fill-opacity="1" fill-rule="nonzero"/><path fill="#2d9596" d="M 21.355469 23.808594 L 21.480469 23.832031 C 21.5625 23.425781 21.65625 22.992188 21.746094 22.546875 C 21.753906 22.511719 21.746094 22.472656 21.71875 22.441406 C 21.695312 22.410156 21.660156 22.394531 21.621094 22.394531 L 21.417969 22.394531 C 21.351562 22.394531 21.296875 22.449219 21.292969 22.515625 L 21.226562 23.800781 C 21.222656 23.867188 21.273438 23.925781 21.339844 23.933594 C 21.40625 23.941406 21.464844 23.898438 21.480469 23.832031 L 21.355469 23.808594 L 21.484375 23.816406 L 21.539062 22.648438 L 21.621094 22.648438 L 21.621094 22.523438 L 21.496094 22.496094 C 21.40625 22.941406 21.3125 23.375 21.230469 23.78125 L 21.355469 23.808594 L 21.484375 23.816406 L 21.355469 23.808594 " fill-opacity="1" fill-rule="nonzero"/><path fill="#2d9596" d="M 21.453125 21.855469 L 21.761719 21.855469 C 22.058594 20.40625 22.359375 18.960938 22.527344 18.140625 L 22.007812 18.140625 L 21.542969 20.082031 L 21.453125 21.855469 " fill-opacity="1" fill-rule="nonzero"/><path fill="#2d9596" d="M 21.453125 21.855469 L 21.453125 21.984375 L 21.761719 21.984375 C 21.820312 21.984375 21.871094 21.941406 21.886719 21.882812 C 22.183594 20.433594 22.484375 18.988281 22.652344 18.167969 C 22.660156 18.128906 22.652344 18.089844 22.625 18.0625 C 22.601562 18.03125 22.566406 18.015625 22.527344 18.015625 L 22.007812 18.015625 C 21.945312 18.015625 21.894531 18.054688 21.882812 18.113281 L 21.417969 20.050781 L 21.414062 20.074219 L 21.324219 21.847656 C 21.324219 21.882812 21.335938 21.917969 21.359375 21.945312 C 21.386719 21.96875 21.417969 21.984375 21.453125 21.984375 L 21.453125 21.855469 L 21.582031 21.863281 L 21.667969 20.097656 L 22.105469 18.269531 L 22.527344 18.269531 L 22.527344 18.140625 L 22.402344 18.117188 C 22.234375 18.933594 21.933594 20.382812 21.632812 21.828125 L 21.761719 21.855469 L 21.761719 21.726562 L 21.453125 21.726562 L 21.453125 21.855469 L 21.582031 21.863281 L 21.453125 21.855469 " fill-opacity="1" fill-rule="nonzero"/><path fill="#2d9596" d="M 22.484375 22.523438 L 22.3125 22.523438 L 22.167969 24.109375 C 22.289062 24.003906 22.375 23.851562 22.390625 23.675781 L 22.484375 22.523438 " fill-opacity="1" fill-rule="nonzero"/><path fill="#2d9596" d="M 22.484375 22.523438 L 22.484375 22.394531 L 22.3125 22.394531 C 22.246094 22.394531 22.191406 22.445312 22.1875 22.511719 L 22.039062 24.097656 C 22.035156 24.148438 22.0625 24.199219 22.105469 24.222656 C 22.152344 24.246094 22.207031 24.242188 22.25 24.207031 C 22.398438 24.082031 22.5 23.894531 22.515625 23.6875 L 22.613281 22.53125 C 22.613281 22.496094 22.601562 22.460938 22.578125 22.4375 C 22.554688 22.410156 22.519531 22.394531 22.484375 22.394531 L 22.484375 22.523438 L 22.359375 22.511719 L 22.261719 23.664062 C 22.25 23.804688 22.183594 23.925781 22.082031 24.011719 L 22.167969 24.109375 L 22.292969 24.121094 L 22.429688 22.648438 L 22.484375 22.648438 L 22.484375 22.523438 L 22.359375 22.511719 L 22.484375 22.523438 " fill-opacity="1" fill-rule="nonzero"/><path fill="#2d9596" d="M 23.195312 13.761719 L 23.054688 13.761719 L 22.164062 17.476562 L 22.667969 17.476562 L 22.671875 17.460938 C 22.679688 17.414062 22.722656 17.386719 22.769531 17.394531 C 22.808594 17.402344 22.832031 17.4375 22.832031 17.476562 L 22.894531 17.476562 L 23.195312 13.761719 " fill-opacity="1" fill-rule="nonzero"/><path fill="#2d9596" d="M 23.195312 13.761719 L 23.195312 13.636719 L 23.054688 13.636719 C 22.992188 13.636719 22.941406 13.675781 22.929688 13.734375 L 22.039062 17.449219 C 22.03125 17.484375 22.039062 17.523438 22.0625 17.554688 C 22.089844 17.585938 22.125 17.605469 22.164062 17.605469 L 22.667969 17.605469 C 22.722656 17.605469 22.773438 17.566406 22.789062 17.507812 L 22.792969 17.492188 L 22.796875 17.484375 L 22.75 17.476562 L 22.777344 17.511719 C 22.785156 17.507812 22.792969 17.496094 22.796875 17.484375 L 22.75 17.476562 L 22.777344 17.511719 L 22.753906 17.480469 L 22.753906 17.519531 L 22.777344 17.511719 L 22.753906 17.480469 L 22.753906 17.519531 L 22.753906 17.460938 L 22.742188 17.519531 L 22.753906 17.519531 L 22.753906 17.460938 L 22.742188 17.519531 L 22.769531 17.394531 L 22.738281 17.519531 L 22.75 17.472656 L 22.714844 17.5 L 22.738281 17.519531 L 22.75 17.472656 L 22.714844 17.5 L 22.746094 17.476562 L 22.703125 17.476562 L 22.714844 17.5 L 22.746094 17.476562 L 22.703125 17.476562 C 22.703125 17.511719 22.71875 17.542969 22.742188 17.566406 C 22.765625 17.589844 22.796875 17.605469 22.832031 17.605469 L 22.894531 17.605469 C 22.960938 17.605469 23.015625 17.554688 23.023438 17.488281 L 23.324219 13.773438 C 23.328125 13.738281 23.316406 13.703125 23.289062 13.675781 C 23.265625 13.648438 23.230469 13.636719 23.195312 13.636719 L 23.195312 13.761719 L 23.070312 13.753906 L 22.769531 17.46875 L 22.894531 17.476562 L 22.894531 17.347656 L 22.832031 17.347656 L 22.832031 17.476562 L 22.960938 17.476562 C 22.960938 17.429688 22.945312 17.382812 22.917969 17.347656 C 22.886719 17.308594 22.847656 17.28125 22.796875 17.269531 L 22.792969 17.269531 C 22.777344 17.265625 22.765625 17.265625 22.753906 17.265625 C 22.707031 17.265625 22.660156 17.28125 22.621094 17.308594 C 22.585938 17.339844 22.554688 17.382812 22.542969 17.4375 L 22.671875 17.460938 L 22.546875 17.429688 L 22.542969 17.445312 L 22.667969 17.476562 L 22.667969 17.347656 L 22.328125 17.347656 L 23.152344 13.890625 L 23.195312 13.890625 L 23.195312 13.761719 L 23.070312 13.753906 L 23.195312 13.761719 " fill-opacity="1" fill-rule="nonzero"/><path fill="#2d9596" d="M 21.449219 24.183594 C 21.527344 24.230469 21.621094 24.257812 21.71875 24.261719 C 21.847656 24.269531 21.972656 24.238281 22.078125 24.175781 L 22.230469 22.523438 L 21.789062 22.523438 L 21.449219 24.183594 " fill-opacity="1" fill-rule="nonzero"/><path fill="#2d9596" d="M 21.449219 24.183594 L 21.386719 24.296875 C 21.484375 24.347656 21.59375 24.382812 21.714844 24.390625 C 21.726562 24.390625 21.742188 24.390625 21.753906 24.390625 C 21.894531 24.390625 22.027344 24.351562 22.140625 24.285156 C 22.175781 24.265625 22.199219 24.230469 22.203125 24.1875 L 22.359375 22.535156 C 22.363281 22.5 22.351562 22.460938 22.324219 22.4375 C 22.300781 22.410156 22.265625 22.394531 22.230469 22.394531 L 21.789062 22.394531 C 21.730469 22.394531 21.679688 22.4375 21.667969 22.496094 L 21.324219 24.160156 C 21.3125 24.214844 21.335938 24.269531 21.386719 24.296875 L 21.449219 24.183594 L 21.574219 24.210938 L 21.894531 22.648438 L 22.089844 22.648438 L 21.949219 24.164062 L 22.078125 24.175781 L 22.011719 24.066406 C 21.933594 24.109375 21.847656 24.136719 21.753906 24.136719 L 21.726562 24.136719 C 21.648438 24.132812 21.574219 24.109375 21.507812 24.074219 L 21.449219 24.183594 L 21.574219 24.210938 L 21.449219 24.183594 " fill-opacity="1" fill-rule="nonzero"/><path fill="#2d9596" d="M 22.839844 18.140625 L 22.699219 18.140625 L 21.929688 21.855469 L 22.292969 21.855469 L 22.292969 21.851562 C 22.296875 21.832031 22.3125 21.8125 22.335938 21.8125 L 22.335938 21.816406 C 22.359375 21.816406 22.375 21.835938 22.375 21.855469 L 22.539062 21.855469 L 22.839844 18.140625 " fill-opacity="1" fill-rule="nonzero"/><path fill="#2d9596" d="M 22.839844 18.140625 L 22.839844 18.015625 L 22.699219 18.015625 C 22.636719 18.015625 22.585938 18.058594 22.574219 18.117188 L 21.804688 21.828125 C 21.796875 21.867188 21.804688 21.90625 21.832031 21.9375 C 21.855469 21.964844 21.890625 21.984375 21.929688 21.984375 L 22.292969 21.984375 C 22.335938 21.984375 22.378906 21.960938 22.402344 21.921875 L 22.402344 21.917969 C 22.414062 21.902344 22.421875 21.882812 22.421875 21.859375 L 22.335938 21.855469 L 22.335938 21.941406 C 22.382812 21.941406 22.417969 21.910156 22.421875 21.859375 L 22.335938 21.855469 L 22.335938 21.941406 L 22.335938 21.8125 L 22.265625 21.921875 L 22.269531 21.921875 C 22.289062 21.933594 22.308594 21.941406 22.332031 21.941406 L 22.335938 21.855469 L 22.269531 21.914062 C 22.285156 21.929688 22.308594 21.941406 22.332031 21.941406 L 22.335938 21.855469 L 22.269531 21.914062 L 22.335938 21.855469 L 22.246094 21.855469 C 22.246094 21.875 22.253906 21.894531 22.269531 21.914062 L 22.335938 21.855469 L 22.246094 21.855469 C 22.246094 21.890625 22.261719 21.921875 22.285156 21.945312 C 22.308594 21.96875 22.339844 21.984375 22.375 21.984375 L 22.539062 21.984375 C 22.605469 21.984375 22.660156 21.933594 22.664062 21.867188 L 22.96875 18.152344 C 22.972656 18.117188 22.957031 18.082031 22.933594 18.054688 C 22.910156 18.03125 22.875 18.015625 22.839844 18.015625 L 22.839844 18.140625 L 22.714844 18.132812 L 22.417969 21.726562 L 22.375 21.726562 L 22.375 21.855469 L 22.503906 21.855469 C 22.503906 21.816406 22.488281 21.777344 22.460938 21.746094 C 22.433594 21.710938 22.390625 21.691406 22.34375 21.6875 L 22.335938 21.816406 L 22.40625 21.707031 L 22.402344 21.707031 C 22.382812 21.691406 22.359375 21.6875 22.335938 21.6875 C 22.242188 21.6875 22.175781 21.753906 22.167969 21.84375 L 22.292969 21.851562 L 22.183594 21.785156 L 22.183594 21.789062 L 22.292969 21.855469 L 22.292969 21.726562 L 22.085938 21.726562 L 22.800781 18.269531 L 22.839844 18.269531 L 22.839844 18.140625 L 22.714844 18.132812 L 22.839844 18.140625 " fill-opacity="1" fill-rule="nonzero"/><g fill="#2d9596" fill-opacity="1"><g transform="translate(7.999454, 49.710077)"><g><path d="M 4.785156 0 C 4.785156 0 4.503906 -0.0351562 4.503906 -0.621094 L 4.503906 -1.941406 C 4.503906 -2.546875 4.785156 -2.585938 4.785156 -2.585938 L 1.925781 -2.585938 L 1.933594 -1.632812 C 1.933594 -1.632812 2.113281 -2.320312 3.574219 -2.363281 C 3.609375 -2.273438 3.632812 -2.140625 3.632812 -1.957031 C 3.632812 -1.957031 3.632812 -1.957031 3.632812 -0.996094 C 3.632812 -0.191406 3.019531 -0.214844 2.652344 -0.214844 C 1.714844 -0.214844 0.953125 -1.242188 0.953125 -2.503906 C 0.953125 -3.898438 1.660156 -4.753906 2.753906 -4.753906 C 3.632812 -4.753906 3.980469 -4.140625 4.007812 -3.609375 L 4.769531 -3.988281 C 4.4375 -4.644531 3.683594 -4.941406 2.746094 -4.941406 C 0.980469 -4.941406 0.0742188 -3.707031 0.0742188 -2.445312 C 0.0742188 -1.046875 1.226562 0.0898438 2.652344 0.0898438 C 3.476562 0.0898438 3.824219 -0.0898438 4.785156 0 Z M 4.785156 0 "/></g></g></g><g fill="#2d9596" fill-opacity="1"><g transform="translate(12.856325, 49.710077)"><g><path d="M 3.492188 -1.433594 C 3.492188 -0.730469 3.257812 -0.167969 2.339844 -0.167969 C 1.417969 -0.167969 1.21875 -0.730469 1.21875 -1.433594 L 1.21875 -4.289062 C 1.21875 -4.875 1.492188 -4.917969 1.492188 -4.917969 L 0.0742188 -4.917969 C 0.0742188 -4.917969 0.347656 -4.882812 0.347656 -4.277344 L 0.355469 -1.417969 C 0.355469 -0.636719 0.847656 0 2.257812 0 C 3.671875 0 3.875 -0.628906 3.882812 -1.417969 L 3.882812 -4.296875 C 3.882812 -4.882812 4.15625 -4.925781 4.15625 -4.925781 L 3.21875 -4.925781 C 3.21875 -4.925781 3.492188 -4.886719 3.492188 -4.28125 Z M 3.492188 -1.433594 "/></g></g></g><g fill="#2d9596" fill-opacity="1"><g transform="translate(17.085789, 49.710077)"><g><path d="M 1.492188 -4.925781 L 0.0742188 -4.925781 C 0.0742188 -4.925781 0.339844 -4.882812 0.339844 -4.296875 L 0.339844 -0.628906 C 0.339844 -0.0351562 0.0742188 0 0.0742188 0 L 1.492188 0 C 1.492188 0 1.210938 -0.0351562 1.210938 -0.621094 L 1.210938 -4.28125 C 1.210938 -4.886719 1.492188 -4.925781 1.492188 -4.925781 Z M 1.492188 -4.925781 "/></g></g></g><g fill="#2d9596" fill-opacity="1"><g transform="translate(18.650618, 49.710077)"><g><path d="M 0.0742188 -4.925781 L 0.0742188 -3.972656 C 0.0742188 -3.972656 0.242188 -4.609375 1.558594 -4.695312 C 1.59375 -4.609375 1.617188 -4.476562 1.617188 -4.296875 L 1.617188 -0.628906 C 1.617188 -0.0429688 1.351562 0 1.351562 0 L 2.769531 0 C 2.769531 0 2.488281 -0.0351562 2.488281 -0.640625 L 2.488281 -4.304688 C 2.488281 -4.480469 2.519531 -4.609375 2.546875 -4.695312 C 3.875 -4.609375 4.046875 -3.972656 4.046875 -3.972656 L 4.054688 -4.925781 Z M 0.0742188 -4.925781 "/></g></g></g><g fill="#2d9596" fill-opacity="1"><g transform="translate(22.776744, 49.710077)"><g><path d="M 3.816406 0 L 5.234375 0 C 5.234375 0 4.949219 -0.0351562 4.726562 -0.621094 L 3.351562 -4.28125 C 3.109375 -4.859375 2.9375 -4.925781 2.796875 -4.925781 L 1.917969 -4.925781 C 1.917969 -4.925781 2.1875 -4.886719 1.957031 -4.28125 L 0.582031 -0.621094 C 0.363281 -0.0351562 0.0742188 0 0.0742188 0 L 1.011719 0 C 1.011719 0 0.753906 -0.0351562 0.976562 -0.628906 L 1.386719 -1.71875 L 3.441406 -1.71875 L 3.855469 -0.628906 C 4.074219 -0.0351562 3.816406 0 3.816406 0 Z M 1.507812 -2.039062 L 2.355469 -4.296875 C 2.371094 -4.347656 2.390625 -4.402344 2.414062 -4.445312 C 2.4375 -4.402344 2.457031 -4.347656 2.472656 -4.296875 L 3.324219 -2.039062 Z M 1.507812 -2.039062 "/></g></g></g><g fill="#2d9596" fill-opacity="1"><g transform="translate(28.083872, 49.710077)"><g><path d="M 2.871094 0 L 4.289062 0 C 4.289062 0 3.996094 -0.0351562 3.683594 -0.621094 L 3.011719 -1.867188 C 3.757812 -2.058594 4.28125 -2.539062 4.28125 -3.367188 C 4.28125 -4.476562 3.132812 -4.925781 1.707031 -4.925781 C 1.617188 -4.925781 0.0742188 -4.925781 0.0742188 -4.925781 C 0.0742188 -4.925781 0.339844 -4.882812 0.339844 -4.296875 L 0.339844 -0.628906 C 0.339844 -0.0351562 0.0742188 0 0.0742188 0 L 1.492188 0 C 1.492188 0 1.210938 -0.0351562 1.210938 -0.621094 L 1.210938 -1.824219 C 1.425781 -1.800781 2 -1.78125 2.191406 -1.78125 L 2.8125 -0.628906 C 3.132812 -0.0351562 2.871094 0 2.871094 0 Z M 1.699219 -2.046875 C 1.566406 -2.046875 1.378906 -2.066406 1.210938 -2.105469 L 1.210938 -4.28125 C 1.210938 -4.386719 1.21875 -4.476562 1.234375 -4.546875 C 1.378906 -4.601562 1.542969 -4.628906 1.707031 -4.628906 C 2.644531 -4.628906 3.402344 -4.253906 3.402344 -3.316406 C 3.402344 -2.386719 2.636719 -2.046875 1.699219 -2.046875 Z M 1.699219 -2.046875 "/></g></g></g><g fill="#2d9596" fill-opacity="1"><g transform="translate(10.815783, 58.434151)"><g><path d="M 4.785156 0 C 4.785156 0 4.503906 -0.0351562 4.503906 -0.621094 L 4.503906 -1.941406 C 4.503906 -2.546875 4.785156 -2.585938 4.785156 -2.585938 L 1.925781 -2.585938 L 1.933594 -1.632812 C 1.933594 -1.632812 2.113281 -2.320312 3.574219 -2.363281 C 3.609375 -2.273438 3.632812 -2.140625 3.632812 -1.957031 C 3.632812 -1.957031 3.632812 -1.957031 3.632812 -0.996094 C 3.632812 -0.191406 3.019531 -0.214844 2.652344 -0.214844 C 1.714844 -0.214844 0.953125 -1.242188 0.953125 -2.503906 C 0.953125 -3.898438 1.660156 -4.753906 2.753906 -4.753906 C 3.632812 -4.753906 3.980469 -4.140625 4.007812 -3.609375 L 4.769531 -3.988281 C 4.4375 -4.644531 3.683594 -4.941406 2.746094 -4.941406 C 0.980469 -4.941406 0.0742188 -3.707031 0.0742188 -2.445312 C 0.0742188 -1.046875 1.226562 0.0898438 2.652344 0.0898438 C 3.476562 0.0898438 3.824219 -0.0898438 4.785156 0 Z M 4.785156 0 "/></g></g></g><g fill="#2d9596" fill-opacity="1"><g transform="translate(15.672654, 58.434151)"><g><path d="M 1.492188 -4.925781 L 0.0742188 -4.925781 C 0.0742188 -4.925781 0.339844 -4.882812 0.339844 -4.296875 L 0.339844 -0.628906 C 0.339844 -0.0351562 0.0742188 0 0.0742188 0 L 1.492188 0 C 1.492188 0 1.210938 -0.0351562 1.210938 -0.621094 L 1.210938 -4.28125 C 1.210938 -4.886719 1.492188 -4.925781 1.492188 -4.925781 Z M 1.492188 -4.925781 "/></g></g></g><g fill="#2d9596" fill-opacity="1"><g transform="translate(17.237483, 58.434151)"><g><path d="M 2.871094 0 L 4.289062 0 C 4.289062 0 3.996094 -0.0351562 3.683594 -0.621094 L 3.011719 -1.867188 C 3.757812 -2.058594 4.28125 -2.539062 4.28125 -3.367188 C 4.28125 -4.476562 3.132812 -4.925781 1.707031 -4.925781 C 1.617188 -4.925781 0.0742188 -4.925781 0.0742188 -4.925781 C 0.0742188 -4.925781 0.339844 -4.882812 0.339844 -4.296875 L 0.339844 -0.628906 C 0.339844 -0.0351562 0.0742188 0 0.0742188 0 L 1.492188 0 C 1.492188 0 1.210938 -0.0351562 1.210938 -0.621094 L 1.210938 -1.824219 C 1.425781 -1.800781 2 -1.78125 2.191406 -1.78125 L 2.8125 -0.628906 C 3.132812 -0.0351562 2.871094 0 2.871094 0 Z M 1.699219 -2.046875 C 1.566406 -2.046875 1.378906 -2.066406 1.210938 -2.105469 L 1.210938 -4.28125 C 1.210938 -4.386719 1.21875 -4.476562 1.234375 -4.546875 C 1.378906 -4.601562 1.542969 -4.628906 1.707031 -4.628906 C 2.644531 -4.628906 3.402344 -4.253906 3.402344 -3.316406 C 3.402344 -2.386719 2.636719 -2.046875 1.699219 -2.046875 Z M 1.699219 -2.046875 "/></g></g></g><g fill="#2d9596" fill-opacity="1"><g transform="translate(21.599809, 58.434151)"><g><path d="M 3.714844 0 L 3.707031 -0.953125 C 3.707031 -0.953125 3.515625 -0.214844 1.90625 -0.214844 L 1.277344 -0.214844 C 1.242188 -0.308594 1.210938 -0.4375 1.210938 -0.621094 L 1.210938 -4.28125 C 1.210938 -4.886719 1.492188 -4.925781 1.492188 -4.925781 L 0.0742188 -4.925781 C 0.0742188 -4.925781 0.339844 -4.882812 0.339844 -4.296875 L 0.339844 -0.628906 C 0.339844 -0.0351562 0.0742188 0 0.0742188 0 Z M 3.714844 0 "/></g></g></g><g fill="#2d9596" fill-opacity="1"><g transform="translate(25.386396, 58.434151)"><g><path d="M 1.59375 -2.578125 C 2.148438 -2.390625 3.292969 -1.980469 3.292969 -1.242188 C 3.292969 -0.503906 2.753906 -0.289062 2.132812 -0.289062 C 1.246094 -0.289062 0.804688 -0.953125 0.722656 -1.394531 L 0.0742188 -0.589844 C 0.40625 -0.242188 1.21875 0 1.957031 0 C 3.203125 0 4.171875 -0.242188 4.171875 -1.34375 C 4.171875 -2.445312 3.21875 -2.777344 2.304688 -3.125 C 1.449219 -3.457031 1.144531 -3.410156 1.144531 -3.996094 C 1.144531 -4.289062 1.3125 -4.679688 2.015625 -4.679688 C 2.835938 -4.679688 3.484375 -4.046875 3.535156 -3.847656 L 3.957031 -4.488281 C 3.523438 -4.695312 2.835938 -4.917969 2.015625 -4.917969 C 1.269531 -4.917969 0.347656 -4.703125 0.347656 -3.789062 C 0.347656 -3.226562 0.761719 -2.863281 1.59375 -2.578125 Z M 1.59375 -2.578125 "/></g></g></g></svg>