<svg xmlns="http://www.w3.org/2000/svg" xmlns:xlink="http://www.w3.org/1999/xlink" width="500" zoomAndPan="magnify" viewBox="0 0 375 374.999991" height="500" preserveAspectRatio="xMidYMid meet" version="1.0"><defs><g/><clipPath id="64ce22e475"><path d="M 134.265625 102.507812 L 240.765625 102.507812 L 240.765625 217 L 134.265625 217 Z M 134.265625 102.507812 " clip-rule="nonzero"/></clipPath><clipPath id="4e2fe63309"><path d="M 134.265625 102.507812 L 240.765625 102.507812 L 240.765625 217.257812 L 134.265625 217.257812 Z M 134.265625 102.507812 " clip-rule="nonzero"/></clipPath></defs><path fill="#2d9596" d="M 179.46875 152.257812 L 178.335938 152.257812 L 180.542969 162.90625 L 181.195312 162.90625 L 180.980469 158.574219 L 179.46875 152.257812 " fill-opacity="1" fill-rule="nonzero"/><path fill="#2d9596" d="M 179.46875 152.257812 L 179.46875 151.890625 L 178.335938 151.890625 C 178.226562 151.890625 178.121094 151.941406 178.050781 152.027344 C 177.984375 152.113281 177.957031 152.226562 177.976562 152.332031 L 180.183594 162.980469 C 180.21875 163.148438 180.367188 163.273438 180.542969 163.273438 L 181.195312 163.273438 C 181.296875 163.273438 181.390625 163.230469 181.460938 163.160156 C 181.53125 163.085938 181.566406 162.988281 181.5625 162.886719 L 181.347656 158.554688 L 181.335938 158.488281 L 179.824219 152.171875 C 179.785156 152.007812 179.636719 151.890625 179.46875 151.890625 L 179.46875 152.257812 L 179.113281 152.34375 L 180.613281 158.625 L 180.8125 162.539062 L 180.542969 162.539062 L 180.542969 162.90625 L 180.902344 162.832031 L 178.785156 152.625 L 179.46875 152.625 L 179.46875 152.257812 L 179.113281 152.34375 L 179.46875 152.257812 " fill-opacity="1" fill-rule="nonzero"/><path fill="#2d9596" d="M 180.453125 152.257812 L 180.71875 153.378906 L 180.664062 152.257812 Z M 180.453125 152.257812 " fill-opacity="1" fill-rule="nonzero"/><path fill="#2d9596" d="M 180.453125 152.257812 L 180.09375 152.34375 L 180.363281 153.460938 C 180.40625 153.644531 180.582031 153.769531 180.769531 153.742188 C 180.957031 153.714844 181.09375 153.546875 181.085938 153.359375 L 181.03125 152.242188 C 181.019531 152.046875 180.859375 151.890625 180.664062 151.890625 L 180.453125 151.890625 C 180.339844 151.890625 180.234375 151.945312 180.164062 152.03125 C 180.09375 152.121094 180.070312 152.234375 180.09375 152.34375 L 180.453125 152.257812 L 180.453125 152.625 L 180.664062 152.625 L 180.664062 152.257812 L 180.296875 152.277344 L 180.351562 153.394531 L 180.71875 153.378906 L 181.074219 153.292969 L 180.808594 152.171875 L 180.453125 152.257812 L 180.453125 152.625 L 180.453125 152.257812 " fill-opacity="1" fill-rule="nonzero"/><path fill="#2d9596" d="M 177.800781 130.277344 C 176.492188 130.382812 175.511719 131.535156 175.617188 132.851562 L 176.019531 137.792969 L 176.035156 137.792969 C 176.035156 137.578125 176.171875 137.378906 176.390625 137.328125 C 176.644531 137.265625 176.902344 137.425781 176.964844 137.679688 L 176.992188 137.792969 L 179.9375 137.792969 L 179.589844 130.882812 C 179.121094 130.464844 178.484375 130.222656 177.800781 130.277344 " fill-opacity="1" fill-rule="nonzero"/><path fill="#2d9596" d="M 177.800781 130.277344 L 177.773438 129.914062 C 176.335938 130.03125 175.242188 131.234375 175.242188 132.65625 C 175.242188 132.730469 175.246094 132.804688 175.253906 132.882812 L 175.65625 137.824219 C 175.671875 138.015625 175.832031 138.160156 176.019531 138.160156 L 176.035156 138.160156 C 176.132812 138.160156 176.222656 138.121094 176.292969 138.054688 C 176.363281 137.984375 176.398438 137.890625 176.398438 137.792969 L 176.421875 137.71875 L 176.476562 137.683594 L 176.472656 137.683594 L 176.5 137.679688 C 176.550781 137.679688 176.597656 137.714844 176.609375 137.765625 L 176.636719 137.878906 C 176.675781 138.042969 176.824219 138.160156 176.992188 138.160156 L 179.9375 138.160156 C 180.039062 138.160156 180.132812 138.117188 180.203125 138.046875 C 180.273438 137.972656 180.308594 137.875 180.304688 137.773438 L 179.957031 130.863281 C 179.953125 130.769531 179.90625 130.675781 179.835938 130.609375 C 179.347656 130.175781 178.699219 129.902344 178 129.902344 C 177.925781 129.902344 177.847656 129.90625 177.769531 129.914062 L 177.773438 129.914062 L 177.800781 130.277344 L 177.835938 130.644531 C 177.886719 130.640625 177.941406 130.636719 178 130.636719 C 178.511719 130.636719 178.984375 130.832031 179.347656 131.15625 L 179.589844 130.882812 L 179.226562 130.902344 L 179.554688 137.425781 L 176.992188 137.425781 L 176.992188 137.792969 L 177.347656 137.707031 L 177.320312 137.59375 C 177.226562 137.207031 176.882812 136.949219 176.5 136.949219 C 176.433594 136.949219 176.367188 136.957031 176.304688 136.972656 L 176.300781 136.972656 C 176.109375 137.019531 175.945312 137.132812 175.835938 137.28125 C 175.726562 137.425781 175.667969 137.605469 175.667969 137.792969 L 176.035156 137.792969 L 176.035156 137.425781 L 176.019531 137.425781 L 176.019531 137.792969 L 176.386719 137.765625 L 175.980469 132.820312 C 175.976562 132.765625 175.976562 132.710938 175.976562 132.65625 C 175.976562 131.613281 176.777344 130.726562 177.832031 130.644531 L 177.835938 130.644531 L 177.800781 130.277344 " fill-opacity="1" fill-rule="nonzero"/><path fill="#2d9596" d="M 177.363281 149.882812 C 177.613281 149.824219 177.871094 149.996094 177.925781 150.253906 L 177.945312 150.351562 L 179.015625 150.351562 L 176.464844 139.699219 L 176.175781 139.699219 L 177.027344 150.160156 C 177.089844 150.023438 177.203125 149.914062 177.363281 149.882812 " fill-opacity="1" fill-rule="nonzero"/><path fill="#2d9596" d="M 177.363281 149.882812 L 177.441406 150.238281 L 177.457031 150.238281 C 177.5 150.234375 177.558594 150.277344 177.566406 150.328125 L 177.925781 150.253906 L 177.566406 150.324219 L 177.585938 150.421875 C 177.617188 150.59375 177.769531 150.71875 177.945312 150.71875 L 179.015625 150.71875 C 179.128906 150.71875 179.234375 150.667969 179.304688 150.578125 C 179.375 150.488281 179.398438 150.375 179.371094 150.265625 L 176.824219 139.613281 C 176.785156 139.449219 176.636719 139.335938 176.464844 139.335938 L 176.175781 139.335938 C 176.074219 139.335938 175.976562 139.378906 175.90625 139.453125 C 175.835938 139.527344 175.804688 139.628906 175.8125 139.730469 L 176.660156 150.191406 C 176.675781 150.355469 176.796875 150.492188 176.960938 150.519531 C 177.125 150.546875 177.289062 150.460938 177.359375 150.3125 C 177.382812 150.261719 177.40625 150.246094 177.4375 150.242188 L 177.441406 150.238281 L 177.363281 149.882812 L 177.285156 149.523438 C 177 149.582031 176.789062 149.785156 176.695312 150.007812 L 177.027344 150.160156 L 177.390625 150.128906 L 176.542969 139.671875 L 176.175781 139.699219 L 176.175781 140.066406 L 178.550781 149.984375 L 177.945312 149.984375 L 177.945312 150.351562 L 178.304688 150.28125 L 178.285156 150.183594 L 178.28125 150.179688 C 178.199219 149.78125 177.855469 149.507812 177.457031 149.503906 C 177.398438 149.503906 177.339844 149.511719 177.28125 149.523438 L 177.363281 149.882812 L 177.285156 149.523438 L 177.363281 149.882812 " fill-opacity="1" fill-rule="nonzero"/><path fill="#2d9596" d="M 177.449219 139.699219 L 179.996094 150.351562 L 180.566406 150.351562 L 180.03125 139.699219 L 177.449219 139.699219 " fill-opacity="1" fill-rule="nonzero"/><path fill="#2d9596" d="M 177.449219 139.699219 L 177.089844 139.785156 L 179.640625 150.4375 C 179.679688 150.601562 179.828125 150.71875 179.996094 150.71875 L 180.566406 150.71875 C 180.667969 150.71875 180.765625 150.675781 180.832031 150.605469 C 180.902344 150.53125 180.9375 150.433594 180.933594 150.332031 L 180.398438 139.683594 C 180.390625 139.488281 180.230469 139.335938 180.03125 139.335938 L 177.449219 139.335938 C 177.335938 139.335938 177.230469 139.386719 177.160156 139.472656 C 177.089844 139.5625 177.066406 139.675781 177.089844 139.785156 L 177.449219 139.699219 L 177.449219 140.066406 L 179.683594 140.066406 L 180.179688 149.984375 L 179.996094 149.984375 L 179.996094 150.351562 L 180.351562 150.265625 L 177.804688 139.613281 L 177.449219 139.699219 L 177.449219 140.066406 L 177.449219 139.699219 " fill-opacity="1" fill-rule="nonzero"/><path fill="#2d9596" d="M 178.222656 164.816406 L 178.492188 168.125 C 178.511719 168.398438 178.597656 168.648438 178.726562 168.871094 L 178.351562 164.816406 L 178.222656 164.816406 " fill-opacity="1" fill-rule="nonzero"/><path fill="#2d9596" d="M 178.222656 164.816406 L 177.859375 164.847656 L 178.128906 168.15625 L 178.128906 168.152344 C 178.152344 168.488281 178.257812 168.789062 178.40625 169.050781 C 178.492188 169.203125 178.667969 169.273438 178.832031 169.222656 C 179 169.171875 179.105469 169.011719 179.089844 168.839844 L 178.714844 164.785156 C 178.695312 164.59375 178.539062 164.449219 178.351562 164.449219 L 178.222656 164.449219 C 178.121094 164.449219 178.023438 164.492188 177.953125 164.570312 C 177.886719 164.644531 177.851562 164.746094 177.859375 164.847656 L 178.222656 164.816406 L 178.222656 165.183594 L 178.351562 165.183594 L 178.351562 164.816406 L 177.984375 164.851562 L 178.359375 168.90625 L 178.726562 168.871094 L 179.042969 168.691406 C 178.941406 168.507812 178.875 168.3125 178.859375 168.097656 L 178.855469 168.097656 L 178.589844 164.785156 L 178.222656 164.816406 L 178.222656 165.183594 L 178.222656 164.816406 " fill-opacity="1" fill-rule="nonzero"/><path fill="#2d9596" d="M 179.125 162.867188 L 179.128906 162.90625 L 179.566406 162.90625 L 177.363281 152.257812 L 177.195312 152.257812 L 178.066406 162.90625 L 178.175781 162.90625 C 178.175781 162.664062 178.355469 162.457031 178.609375 162.433594 C 178.859375 162.417969 179.101562 162.597656 179.125 162.867188 " fill-opacity="1" fill-rule="nonzero"/><path fill="#2d9596" d="M 179.125 162.867188 L 178.761719 162.898438 L 178.765625 162.941406 C 178.78125 163.128906 178.941406 163.273438 179.128906 163.273438 L 179.566406 163.273438 C 179.675781 163.273438 179.78125 163.222656 179.851562 163.136719 C 179.917969 163.050781 179.945312 162.941406 179.925781 162.832031 L 177.722656 152.183594 C 177.6875 152.015625 177.539062 151.890625 177.363281 151.890625 L 177.195312 151.890625 C 177.09375 151.890625 177 151.9375 176.929688 152.011719 C 176.859375 152.085938 176.824219 152.1875 176.832031 152.289062 L 177.703125 162.933594 C 177.71875 163.125 177.875 163.273438 178.066406 163.273438 L 178.175781 163.273438 C 178.277344 163.273438 178.367188 163.234375 178.4375 163.164062 C 178.507812 163.097656 178.542969 163.003906 178.542969 162.90625 C 178.546875 162.847656 178.582031 162.800781 178.644531 162.796875 L 178.609375 162.433594 L 178.632812 162.796875 L 178.640625 162.796875 L 178.722656 162.828125 L 178.761719 162.898438 L 179.492188 162.832031 C 179.46875 162.605469 179.355469 162.40625 179.203125 162.277344 C 179.046875 162.144531 178.851562 162.066406 178.640625 162.0625 L 178.582031 162.066406 L 178.570312 162.066406 C 178.132812 162.113281 177.808594 162.480469 177.8125 162.90625 L 178.175781 162.90625 L 178.175781 162.539062 L 178.066406 162.539062 L 178.066406 162.90625 L 178.433594 162.875 L 177.5625 152.230469 L 177.195312 152.257812 L 177.195312 152.625 L 177.363281 152.625 L 177.363281 152.257812 L 177.007812 152.332031 L 179.207031 162.980469 L 179.566406 162.90625 L 179.566406 162.539062 L 179.128906 162.539062 L 179.128906 162.90625 L 179.496094 162.871094 L 179.492188 162.828125 L 179.125 162.867188 " fill-opacity="1" fill-rule="nonzero"/><path fill="#2d9596" d="M 181.292969 164.816406 L 180.9375 164.816406 L 181.40625 167.074219 Z M 181.292969 164.816406 " fill-opacity="1" fill-rule="nonzero"/><path fill="#2d9596" d="M 181.292969 164.816406 L 181.292969 164.449219 L 180.9375 164.449219 C 180.828125 164.449219 180.722656 164.5 180.65625 164.585938 C 180.585938 164.671875 180.558594 164.785156 180.578125 164.890625 L 181.046875 167.148438 C 181.085938 167.335938 181.261719 167.460938 181.449219 167.4375 C 181.640625 167.414062 181.78125 167.25 181.769531 167.058594 L 181.660156 164.800781 C 181.652344 164.605469 181.492188 164.449219 181.292969 164.449219 L 181.292969 164.816406 L 180.929688 164.835938 L 181.039062 167.09375 L 181.40625 167.074219 L 181.761719 167 L 181.296875 164.742188 L 180.9375 164.816406 L 180.9375 165.183594 L 181.292969 165.183594 L 181.292969 164.816406 L 180.929688 164.835938 L 181.292969 164.816406 " fill-opacity="1" fill-rule="nonzero"/><path fill="#2d9596" d="M 180.410156 169.808594 C 180.609375 169.800781 180.796875 169.75 180.972656 169.683594 L 179.960938 164.816406 L 179.308594 164.816406 L 179.761719 169.722656 C 179.96875 169.785156 180.183594 169.820312 180.410156 169.808594 " fill-opacity="1" fill-rule="nonzero"/><path fill="#2d9596" d="M 180.410156 169.808594 L 180.425781 170.171875 C 180.675781 170.164062 180.898438 170.101562 181.101562 170.027344 C 181.269531 169.964844 181.367188 169.789062 181.332031 169.609375 L 180.320312 164.742188 C 180.289062 164.570312 180.136719 164.449219 179.960938 164.449219 L 179.308594 164.449219 C 179.207031 164.449219 179.105469 164.492188 179.039062 164.570312 C 178.96875 164.648438 178.933594 164.75 178.945312 164.851562 L 179.398438 169.753906 C 179.410156 169.902344 179.511719 170.027344 179.652344 170.070312 C 179.859375 170.136719 180.082031 170.175781 180.320312 170.175781 C 180.355469 170.175781 180.390625 170.175781 180.425781 170.171875 L 180.410156 169.808594 L 180.398438 169.441406 L 180.320312 169.445312 C 180.164062 169.445312 180.019531 169.417969 179.875 169.375 L 179.761719 169.722656 L 180.128906 169.6875 L 179.710938 165.183594 L 179.960938 165.183594 L 179.960938 164.816406 L 179.605469 164.890625 L 180.613281 169.761719 L 180.972656 169.683594 L 180.84375 169.34375 C 180.691406 169.398438 180.542969 169.4375 180.394531 169.441406 L 180.398438 169.441406 L 180.410156 169.808594 " fill-opacity="1" fill-rule="nonzero"/><path fill="#2d9596" d="M 198.9375 137.792969 L 199.339844 132.851562 C 199.445312 131.535156 198.472656 130.382812 197.15625 130.277344 C 196.484375 130.226562 195.859375 130.453125 195.386719 130.867188 L 195.039062 137.792969 L 198.085938 137.792969 L 198.109375 137.707031 C 198.15625 137.515625 198.351562 137.394531 198.542969 137.441406 C 198.703125 137.484375 198.808594 137.628906 198.804688 137.792969 L 198.9375 137.792969 " fill-opacity="1" fill-rule="nonzero"/><path fill="#2d9596" d="M 198.9375 137.792969 L 199.300781 137.824219 L 199.707031 132.882812 C 199.710938 132.804688 199.714844 132.730469 199.714844 132.65625 C 199.714844 131.234375 198.625 130.03125 197.1875 129.914062 C 197.113281 129.90625 197.039062 129.90625 196.964844 129.90625 C 196.273438 129.902344 195.632812 130.160156 195.148438 130.59375 C 195.070312 130.65625 195.027344 130.75 195.023438 130.847656 L 194.675781 137.773438 C 194.671875 137.875 194.707031 137.972656 194.777344 138.046875 C 194.847656 138.117188 194.941406 138.160156 195.039062 138.160156 L 198.085938 138.160156 C 198.257812 138.160156 198.402344 138.042969 198.441406 137.878906 L 198.464844 137.792969 L 198.109375 137.707031 L 198.460938 137.796875 L 198.464844 137.796875 L 198.457031 137.777344 L 198.457031 137.796875 L 198.464844 137.796875 L 198.457031 137.777344 L 198.457031 137.796875 L 198.457031 137.75 L 198.441406 137.796875 L 198.457031 137.796875 L 198.457031 137.75 L 198.441406 137.796875 L 198.453125 137.796875 L 198.457031 137.78125 L 198.441406 137.792969 L 198.453125 137.796875 L 198.457031 137.78125 L 198.441406 137.792969 L 198.449219 137.785156 L 198.441406 137.785156 L 198.441406 137.792969 L 198.449219 137.785156 L 198.441406 137.785156 L 198.53125 137.785156 L 198.441406 137.785156 L 198.53125 137.785156 L 198.441406 137.785156 L 198.441406 137.8125 C 198.449219 138.007812 198.613281 138.160156 198.804688 138.160156 L 198.9375 138.160156 C 199.128906 138.160156 199.285156 138.015625 199.300781 137.824219 L 198.9375 137.792969 L 198.9375 137.425781 L 198.804688 137.425781 L 198.804688 137.792969 L 199.171875 137.773438 L 198.898438 137.789062 L 199.171875 137.789062 L 199.171875 137.773438 L 198.898438 137.789062 L 199.171875 137.789062 L 199.097656 137.789062 L 199.171875 137.789062 L 199.097656 137.789062 L 199.171875 137.789062 L 199.171875 137.785156 C 199.175781 137.464844 198.957031 137.167969 198.628906 137.085938 L 198.542969 137.441406 L 198.640625 137.089844 C 198.574219 137.070312 198.511719 137.0625 198.457031 137.0625 C 198.121094 137.070312 197.839844 137.289062 197.753906 137.617188 L 197.75 137.621094 L 197.730469 137.707031 L 198.085938 137.792969 L 198.085938 137.425781 L 195.425781 137.425781 L 195.753906 130.886719 L 195.386719 130.867188 L 195.628906 131.140625 C 195.992188 130.824219 196.457031 130.636719 196.964844 130.636719 C 197.019531 130.636719 197.070312 130.640625 197.128906 130.644531 C 198.183594 130.726562 198.980469 131.613281 198.980469 132.65625 C 198.980469 132.710938 198.980469 132.765625 198.976562 132.820312 L 198.570312 137.765625 L 198.9375 137.792969 L 198.9375 137.425781 L 198.9375 137.792969 " fill-opacity="1" fill-rule="nonzero"/><g clip-path="url(#64ce22e475)"><path fill="#2d9596" d="M 187.480469 102.875 C 154.503906 102.875 134.722656 111.179688 134.722656 145.429688 C 134.722656 155.753906 138.714844 166.984375 144.546875 177.613281 C 146.070312 180.398438 147.722656 183.148438 149.457031 185.820312 C 157.769531 198.652344 168.074219 209.957031 176.078125 216.808594 L 176.109375 215.042969 L 176.125 214.484375 L 176.3125 204.8125 L 176.324219 204.152344 L 176.484375 195.867188 L 176.503906 194.773438 L 176.652344 187.136719 L 176.671875 186.042969 L 176.855469 176.535156 L 176.855469 175.824219 C 173.957031 175.160156 171.792969 172.570312 171.792969 169.464844 L 171.382812 164.816406 L 169.097656 164.816406 C 168.871094 165.425781 168.425781 165.953125 167.839844 166.335938 C 167.257812 166.722656 166.535156 166.964844 165.742188 167.003906 C 165.65625 167.019531 165.570312 167.019531 165.484375 167.019531 C 163.402344 167.019531 162.457031 167.121094 162.457031 163.871094 C 162.457031 160.601562 163.402344 160.710938 165.484375 160.710938 C 165.570312 160.710938 165.65625 160.710938 165.742188 160.71875 L 165.742188 160.722656 C 167.324219 160.800781 168.636719 161.691406 169.097656 162.90625 L 171.214844 162.90625 L 170.273438 152.257812 L 168.5 152.257812 C 168.039062 153.46875 166.742188 154.355469 165.179688 154.441406 L 165.171875 154.445312 C 165.089844 154.460938 165.003906 154.460938 164.917969 154.460938 L 164.5625 154.460938 C 162.726562 154.460938 161.890625 154.371094 161.890625 151.308594 L 161.890625 151.300781 C 161.890625 150.175781 162.007812 149.457031 162.242188 148.992188 C 162.683594 148.109375 163.558594 148.152344 164.917969 148.152344 C 165.003906 148.152344 165.089844 148.152344 165.171875 148.160156 L 165.179688 148.164062 C 166.742188 148.253906 168.039062 149.140625 168.5 150.351562 L 170.109375 150.351562 L 169.167969 139.699219 L 167.949219 139.699219 C 167.488281 140.902344 166.195312 141.800781 164.621094 141.890625 C 164.535156 141.898438 164.449219 141.898438 164.359375 141.898438 C 162.285156 141.898438 161.339844 142.003906 161.339844 138.75 C 161.339844 135.484375 162.285156 135.59375 164.359375 135.59375 C 164.449219 135.59375 164.535156 135.59375 164.621094 135.601562 C 166.195312 135.6875 167.488281 136.582031 167.941406 137.792969 L 168.996094 137.792969 L 168.207031 128.761719 C 168.207031 126.808594 168.078125 123.957031 171.679688 123.957031 C 171.679688 123.957031 173.113281 123.957031 175.378906 123.957031 C 177.558594 123.957031 182.15625 118.84375 187.160156 118.425781 L 187.160156 118.386719 C 187.269531 118.386719 187.375 118.402344 187.480469 118.40625 C 187.589844 118.402344 187.691406 118.386719 187.796875 118.386719 L 187.796875 118.425781 C 192.804688 118.84375 197.40625 123.957031 199.578125 123.957031 C 201.84375 123.957031 203.277344 123.957031 203.277344 123.957031 C 206.882812 123.957031 206.757812 126.808594 206.757812 128.761719 L 205.960938 137.792969 L 207.007812 137.792969 C 207.464844 136.582031 208.769531 135.695312 210.332031 135.605469 L 210.335938 135.601562 C 210.421875 135.59375 210.507812 135.59375 210.59375 135.59375 C 211.945312 135.59375 212.8125 135.550781 213.257812 136.421875 C 213.5 136.886719 213.621094 137.605469 213.621094 138.746094 L 213.621094 138.75 C 213.621094 142.003906 212.671875 141.898438 210.59375 141.898438 C 210.507812 141.898438 210.421875 141.898438 210.335938 141.890625 L 210.332031 141.886719 C 208.769531 141.796875 207.464844 140.902344 207.011719 139.699219 L 205.789062 139.699219 L 204.851562 150.351562 L 206.460938 150.351562 C 206.917969 149.140625 208.214844 148.257812 209.78125 148.164062 L 209.785156 148.160156 C 209.871094 148.152344 209.957031 148.152344 210.042969 148.152344 C 210.953125 148.152344 211.648438 148.128906 212.136719 148.382812 C 212.769531 148.703125 213.066406 149.46875 213.066406 151.300781 C 213.066406 152.9375 212.828125 153.722656 212.332031 154.105469 C 211.839844 154.484375 211.082031 154.460938 210.042969 154.460938 C 209.957031 154.460938 209.871094 154.460938 209.785156 154.445312 L 209.78125 154.441406 C 208.214844 154.355469 206.917969 153.460938 206.460938 152.257812 L 204.683594 152.257812 L 203.742188 162.90625 L 205.859375 162.90625 C 206.320312 161.691406 207.636719 160.800781 209.210938 160.722656 L 209.210938 160.71875 C 209.300781 160.710938 209.382812 160.710938 209.46875 160.710938 C 211.550781 160.710938 212.496094 160.601562 212.496094 163.871094 C 212.496094 167.121094 211.550781 167.019531 209.46875 167.019531 C 209.382812 167.019531 209.300781 167.019531 209.210938 167.003906 C 207.636719 166.925781 206.320312 166.03125 205.859375 164.816406 L 203.574219 164.816406 L 203.167969 169.464844 C 203.167969 172.566406 201.003906 175.160156 198.105469 175.824219 L 198.105469 176.574219 L 198.878906 216.8125 C 198.832031 216.851562 198.789062 216.886719 198.742188 216.929688 C 198.789062 216.886719 198.835938 216.851562 198.882812 216.8125 C 206.886719 209.953125 217.191406 198.648438 225.5 185.820312 C 227.238281 183.148438 228.886719 180.398438 230.410156 177.613281 C 236.242188 166.984375 240.234375 155.753906 240.234375 145.429688 C 240.234375 111.179688 220.453125 102.875 187.480469 102.875 " fill-opacity="1" fill-rule="nonzero"/></g><g clip-path="url(#4e2fe63309)"><path fill="#2d9596" d="M 187.480469 102.875 L 187.480469 102.507812 C 179.21875 102.507812 171.777344 103.027344 165.253906 104.347656 C 155.464844 106.328125 147.71875 110.121094 142.433594 116.683594 C 137.148438 123.25 134.355469 132.539062 134.355469 145.429688 C 134.359375 155.851562 138.378906 167.125 144.226562 177.789062 C 145.753906 180.582031 147.410156 183.339844 149.148438 186.019531 C 157.488281 198.882812 167.804688 210.207031 175.839844 217.085938 C 175.949219 217.179688 176.101562 217.203125 176.226562 217.144531 C 176.355469 217.085938 176.441406 216.957031 176.445312 216.816406 L 176.476562 215.046875 L 176.476562 215.050781 L 176.492188 214.492188 L 176.675781 204.820312 L 176.691406 204.15625 L 176.847656 195.875 L 176.871094 194.78125 L 177.015625 187.144531 L 177.039062 186.046875 L 177.222656 176.542969 L 177.222656 175.824219 C 177.222656 175.652344 177.101562 175.503906 176.9375 175.46875 C 174.199219 174.839844 172.15625 172.394531 172.15625 169.464844 L 172.15625 169.433594 L 171.746094 164.785156 C 171.730469 164.59375 171.574219 164.449219 171.382812 164.449219 L 169.097656 164.449219 C 168.945312 164.449219 168.808594 164.546875 168.757812 164.6875 C 168.558594 165.214844 168.167969 165.683594 167.640625 166.03125 L 167.636719 166.03125 C 167.113281 166.378906 166.453125 166.601562 165.722656 166.640625 L 165.6875 166.644531 C 165.636719 166.652344 165.570312 166.652344 165.484375 166.652344 C 165.359375 166.652344 165.242188 166.652344 165.128906 166.652344 C 164.671875 166.652344 164.289062 166.644531 163.996094 166.597656 C 163.777344 166.558594 163.609375 166.5 163.476562 166.417969 C 163.378906 166.351562 163.296875 166.277344 163.21875 166.164062 C 163.101562 165.996094 163 165.746094 162.929688 165.367188 C 162.863281 164.996094 162.824219 164.5 162.824219 163.871094 C 162.824219 163.121094 162.878906 162.5625 162.972656 162.167969 C 163.042969 161.871094 163.140625 161.667969 163.242188 161.527344 C 163.320312 161.421875 163.40625 161.351562 163.507812 161.289062 C 163.660156 161.203125 163.863281 161.144531 164.136719 161.113281 C 164.402344 161.078125 164.734375 161.074219 165.117188 161.074219 C 165.234375 161.074219 165.355469 161.074219 165.484375 161.074219 C 165.570312 161.074219 165.644531 161.074219 165.703125 161.082031 L 165.742188 160.71875 L 165.375 160.71875 L 165.375 160.722656 C 165.375 160.917969 165.527344 161.078125 165.722656 161.085938 C 167.179688 161.15625 168.363281 161.984375 168.757812 163.035156 C 168.808594 163.179688 168.945312 163.273438 169.097656 163.273438 L 171.214844 163.273438 C 171.316406 163.273438 171.414062 163.230469 171.484375 163.152344 C 171.554688 163.078125 171.589844 162.976562 171.582031 162.875 L 170.640625 152.226562 C 170.621094 152.039062 170.464844 151.890625 170.273438 151.890625 L 168.5 151.890625 C 168.347656 151.890625 168.210938 151.988281 168.15625 152.128906 C 167.765625 153.175781 166.597656 153.996094 165.15625 154.078125 C 165.074219 154.082031 164.992188 154.117188 164.929688 154.175781 L 164.925781 154.179688 L 165.171875 154.445312 L 165.117188 154.085938 C 165.070312 154.09375 165.003906 154.09375 164.917969 154.09375 L 164.5625 154.09375 C 164.105469 154.09375 163.726562 154.085938 163.429688 154.035156 C 163.210938 154 163.042969 153.941406 162.910156 153.859375 C 162.8125 153.792969 162.730469 153.71875 162.652344 153.605469 C 162.535156 153.4375 162.433594 153.183594 162.363281 152.808594 C 162.296875 152.433594 162.257812 151.9375 162.257812 151.308594 L 162.257812 151.300781 C 162.253906 150.199219 162.375 149.527344 162.566406 149.15625 L 162.570312 149.15625 C 162.652344 148.992188 162.738281 148.886719 162.839844 148.804688 C 162.992188 148.6875 163.195312 148.609375 163.488281 148.566406 C 163.777344 148.519531 164.144531 148.515625 164.582031 148.515625 C 164.691406 148.515625 164.800781 148.515625 164.917969 148.515625 C 165.003906 148.515625 165.078125 148.515625 165.136719 148.523438 L 165.171875 148.160156 L 164.925781 148.429688 L 164.929688 148.433594 C 164.992188 148.488281 165.074219 148.523438 165.15625 148.527344 C 166.597656 148.609375 167.765625 149.433594 168.15625 150.480469 C 168.210938 150.625 168.347656 150.71875 168.5 150.71875 L 170.109375 150.71875 C 170.210938 150.71875 170.308594 150.675781 170.378906 150.597656 C 170.449219 150.523438 170.480469 150.421875 170.472656 150.320312 L 169.53125 139.667969 C 169.515625 139.480469 169.359375 139.335938 169.167969 139.335938 L 167.949219 139.335938 C 167.796875 139.335938 167.660156 139.429688 167.605469 139.570312 C 167.210938 140.617188 166.050781 141.441406 164.597656 141.523438 L 164.578125 141.523438 C 164.523438 141.53125 164.445312 141.53125 164.359375 141.53125 C 164.234375 141.53125 164.113281 141.53125 163.992188 141.53125 C 163.542969 141.53125 163.160156 141.523438 162.871094 141.476562 C 162.652344 141.4375 162.484375 141.378906 162.355469 141.296875 C 162.257812 141.234375 162.175781 141.15625 162.097656 141.042969 C 161.984375 140.875 161.882812 140.625 161.8125 140.246094 C 161.742188 139.871094 161.707031 139.378906 161.707031 138.75 C 161.707031 138 161.757812 137.445312 161.855469 137.046875 C 161.925781 136.753906 162.019531 136.550781 162.125 136.410156 C 162.203125 136.304688 162.285156 136.234375 162.386719 136.171875 C 162.539062 136.085938 162.746094 136.027344 163.015625 135.992188 C 163.285156 135.960938 163.613281 135.957031 163.996094 135.957031 C 164.109375 135.957031 164.234375 135.957031 164.359375 135.957031 C 164.445312 135.957031 164.523438 135.957031 164.578125 135.964844 L 164.597656 135.964844 C 166.050781 136.046875 167.210938 136.875 167.601562 137.921875 C 167.65625 138.0625 167.789062 138.160156 167.941406 138.160156 L 168.996094 138.160156 C 169.101562 138.160156 169.195312 138.117188 169.265625 138.042969 C 169.335938 137.964844 169.371094 137.863281 169.363281 137.761719 L 168.570312 128.730469 L 168.207031 128.761719 L 168.570312 128.761719 C 168.570312 128.632812 168.570312 128.5 168.570312 128.367188 C 168.566406 127.410156 168.609375 126.359375 169.003906 125.609375 C 169.203125 125.234375 169.476562 124.925781 169.890625 124.695312 C 170.308594 124.46875 170.882812 124.324219 171.679688 124.324219 C 171.683594 124.324219 172.039062 124.324219 172.679688 124.324219 C 173.320312 124.324219 174.246094 124.324219 175.378906 124.324219 C 175.726562 124.320312 176.074219 124.226562 176.445312 124.074219 C 177.089844 123.808594 177.808594 123.367188 178.601562 122.847656 C 179.792969 122.070312 181.152344 121.117188 182.609375 120.328125 C 184.070312 119.542969 185.625 118.921875 187.191406 118.792969 C 187.382812 118.777344 187.527344 118.617188 187.527344 118.425781 L 187.527344 118.386719 L 187.160156 118.386719 L 187.160156 118.753906 C 187.230469 118.75 187.332031 118.765625 187.46875 118.773438 L 187.496094 118.773438 C 187.628906 118.765625 187.726562 118.75 187.796875 118.753906 L 187.796875 118.386719 L 187.429688 118.386719 L 187.429688 118.425781 C 187.429688 118.617188 187.574219 118.777344 187.765625 118.792969 C 190.152344 118.984375 192.515625 120.332031 194.550781 121.652344 C 195.570312 122.316406 196.503906 122.96875 197.335938 123.464844 C 197.753906 123.714844 198.144531 123.921875 198.515625 124.074219 C 198.886719 124.226562 199.234375 124.320312 199.578125 124.324219 C 201.84375 124.324219 203.277344 124.324219 203.277344 124.324219 C 204.078125 124.324219 204.652344 124.46875 205.070312 124.699219 C 205.382812 124.867188 205.613281 125.085938 205.792969 125.34375 C 206.0625 125.726562 206.21875 126.210938 206.300781 126.742188 C 206.382812 127.273438 206.390625 127.839844 206.390625 128.378906 C 206.390625 128.507812 206.390625 128.636719 206.390625 128.761719 L 206.757812 128.761719 L 206.394531 128.730469 L 205.597656 137.761719 C 205.585938 137.863281 205.621094 137.964844 205.691406 138.042969 C 205.761719 138.117188 205.859375 138.160156 205.960938 138.160156 L 207.007812 138.160156 C 207.160156 138.160156 207.296875 138.066406 207.347656 137.921875 C 207.742188 136.875 208.910156 136.050781 210.351562 135.96875 C 210.445312 135.964844 210.527344 135.929688 210.589844 135.863281 L 210.59375 135.859375 L 210.335938 135.601562 L 210.375 135.964844 C 210.433594 135.957031 210.507812 135.957031 210.59375 135.957031 C 210.710938 135.957031 210.824219 135.957031 210.929688 135.957031 C 211.507812 135.957031 211.964844 135.96875 212.277344 136.058594 C 212.4375 136.105469 212.558594 136.164062 212.660156 136.246094 C 212.765625 136.324219 212.851562 136.429688 212.933594 136.585938 L 212.933594 136.589844 C 213.128906 136.957031 213.257812 137.628906 213.253906 138.746094 L 213.253906 138.75 C 213.253906 139.496094 213.199219 140.050781 213.105469 140.445312 C 213.03125 140.738281 212.9375 140.941406 212.835938 141.078125 C 212.753906 141.183594 212.671875 141.257812 212.570312 141.316406 C 212.417969 141.40625 212.210938 141.464844 211.941406 141.496094 C 211.671875 141.527344 211.34375 141.53125 210.960938 141.53125 C 210.84375 141.53125 210.71875 141.53125 210.59375 141.53125 C 210.507812 141.53125 210.433594 141.53125 210.375 141.523438 L 210.335938 141.890625 L 210.59375 141.628906 L 210.589844 141.625 C 210.527344 141.5625 210.441406 141.523438 210.351562 141.519531 C 208.914062 141.4375 207.742188 140.613281 207.351562 139.570312 C 207.300781 139.429688 207.164062 139.335938 207.011719 139.335938 L 205.789062 139.335938 C 205.601562 139.335938 205.441406 139.480469 205.425781 139.667969 L 204.484375 150.320312 C 204.476562 150.421875 204.511719 150.523438 204.582031 150.597656 C 204.652344 150.675781 204.746094 150.71875 204.851562 150.71875 L 206.460938 150.71875 C 206.613281 150.71875 206.746094 150.625 206.800781 150.480469 C 207.195312 149.433594 208.359375 148.613281 209.800781 148.527344 C 209.890625 148.523438 209.976562 148.484375 210.039062 148.421875 L 210.042969 148.417969 L 209.785156 148.160156 L 209.820312 148.523438 C 209.882812 148.515625 209.957031 148.515625 210.042969 148.515625 C 210.167969 148.515625 210.289062 148.515625 210.402344 148.515625 C 210.769531 148.515625 211.085938 148.519531 211.347656 148.546875 C 211.609375 148.578125 211.816406 148.628906 211.96875 148.707031 L 211.972656 148.710938 C 212.085938 148.769531 212.179688 148.839844 212.261719 148.945312 C 212.390625 149.101562 212.503906 149.34375 212.582031 149.730469 C 212.660156 150.113281 212.699219 150.628906 212.699219 151.300781 C 212.699219 152.101562 212.640625 152.679688 212.535156 153.078125 C 212.421875 153.476562 212.28125 153.679688 212.109375 153.816406 C 211.957031 153.929688 211.753906 154.003906 211.464844 154.046875 C 211.175781 154.089844 210.8125 154.09375 210.378906 154.09375 C 210.269531 154.09375 210.15625 154.09375 210.042969 154.09375 C 209.957031 154.09375 209.886719 154.09375 209.839844 154.085938 L 209.785156 154.445312 L 210.042969 154.1875 L 210.039062 154.183594 C 209.976562 154.121094 209.890625 154.082031 209.800781 154.078125 C 208.359375 153.996094 207.195312 153.171875 206.800781 152.128906 C 206.746094 151.988281 206.609375 151.890625 206.460938 151.890625 L 204.683594 151.890625 C 204.492188 151.890625 204.335938 152.039062 204.320312 152.226562 L 203.378906 162.875 C 203.367188 162.976562 203.402344 163.078125 203.472656 163.152344 C 203.542969 163.230469 203.640625 163.273438 203.742188 163.273438 L 205.859375 163.273438 C 206.011719 163.273438 206.148438 163.179688 206.203125 163.035156 C 206.597656 161.984375 207.78125 161.160156 209.230469 161.085938 C 209.425781 161.078125 209.578125 160.914062 209.578125 160.722656 L 209.578125 160.71875 L 209.210938 160.71875 L 209.25 161.082031 C 209.3125 161.074219 209.382812 161.074219 209.46875 161.074219 C 209.597656 161.074219 209.722656 161.074219 209.839844 161.074219 C 210.292969 161.074219 210.671875 161.082031 210.960938 161.132812 C 211.183594 161.167969 211.347656 161.226562 211.480469 161.3125 C 211.578125 161.375 211.660156 161.453125 211.738281 161.566406 C 211.851562 161.730469 211.953125 161.988281 212.023438 162.363281 C 212.09375 162.742188 212.128906 163.234375 212.128906 163.871094 C 212.128906 164.617188 212.078125 165.171875 211.980469 165.566406 C 211.910156 165.859375 211.816406 166.0625 211.710938 166.199219 C 211.632812 166.304688 211.546875 166.378906 211.445312 166.4375 C 211.289062 166.527344 211.085938 166.585938 210.8125 166.617188 C 210.542969 166.648438 210.210938 166.652344 209.828125 166.652344 C 209.710938 166.652344 209.59375 166.652344 209.46875 166.652344 C 209.382812 166.652344 209.316406 166.652344 209.265625 166.644531 L 209.230469 166.640625 C 207.78125 166.566406 206.597656 165.738281 206.203125 164.6875 C 206.148438 164.546875 206.011719 164.449219 205.859375 164.449219 L 203.574219 164.449219 C 203.386719 164.449219 203.226562 164.59375 203.210938 164.785156 L 202.800781 169.433594 L 202.800781 169.464844 C 202.800781 172.390625 200.757812 174.839844 198.023438 175.46875 C 197.855469 175.503906 197.738281 175.652344 197.738281 175.824219 L 197.738281 176.582031 L 198.511719 216.816406 L 198.878906 216.8125 L 198.640625 216.53125 C 198.597656 216.570312 198.554688 216.609375 198.503906 216.648438 C 198.386719 216.75 198.34375 216.910156 198.398438 217.054688 C 198.449219 217.199219 198.585938 217.292969 198.742188 217.292969 C 198.832031 217.292969 198.917969 217.261719 198.980469 217.207031 C 199.023438 217.167969 199.070312 217.132812 199.121094 217.089844 C 207.15625 210.203125 217.476562 198.882812 225.808594 186.019531 C 227.550781 183.339844 229.203125 180.582031 230.730469 177.789062 C 236.582031 167.125 240.601562 155.851562 240.601562 145.429688 C 240.601562 136.832031 239.363281 129.84375 236.96875 124.1875 C 233.378906 115.707031 227.175781 110.257812 218.796875 106.96875 C 210.417969 103.675781 199.867188 102.511719 187.480469 102.507812 L 187.480469 103.242188 C 195.707031 103.242188 203.105469 103.757812 209.5625 105.066406 C 219.25 107.03125 226.804688 110.753906 231.953125 117.144531 C 237.101562 123.535156 239.871094 132.636719 239.871094 145.429688 C 239.871094 155.660156 235.902344 166.839844 230.089844 177.4375 C 228.570312 180.214844 226.925781 182.953125 225.195312 185.621094 C 216.90625 198.417969 206.617188 209.703125 198.644531 216.535156 C 198.601562 216.570312 198.554688 216.609375 198.503906 216.648438 L 198.742188 216.929688 L 198.742188 216.5625 L 198.742188 216.929688 L 198.976562 217.207031 C 199.023438 217.167969 199.066406 217.132812 199.117188 217.089844 C 199.199219 217.015625 199.25 216.914062 199.246094 216.804688 L 198.46875 176.570312 L 198.105469 176.574219 L 198.46875 176.574219 L 198.46875 175.824219 L 198.105469 175.824219 L 198.1875 176.179688 C 201.25 175.476562 203.535156 172.738281 203.535156 169.464844 L 203.167969 169.464844 L 203.535156 169.496094 L 203.914062 165.183594 L 205.859375 165.183594 L 205.859375 164.816406 L 205.519531 164.945312 C 206.046875 166.320312 207.492188 167.28125 209.191406 167.371094 L 209.210938 167.003906 L 209.160156 167.367188 C 209.277344 167.386719 209.382812 167.386719 209.46875 167.386719 C 209.59375 167.386719 209.710938 167.386719 209.828125 167.386719 C 210.289062 167.386719 210.699219 167.378906 211.078125 167.320312 C 211.359375 167.269531 211.628906 167.1875 211.871094 167.035156 C 212.050781 166.921875 212.210938 166.769531 212.339844 166.578125 C 212.535156 166.296875 212.660156 165.945312 212.742188 165.503906 C 212.824219 165.0625 212.863281 164.53125 212.863281 163.871094 C 212.863281 163.085938 212.8125 162.480469 212.695312 161.996094 C 212.605469 161.632812 212.480469 161.332031 212.300781 161.089844 C 212.164062 160.910156 212 160.765625 211.816406 160.65625 C 211.539062 160.496094 211.230469 160.421875 210.90625 160.382812 C 210.578125 160.347656 210.226562 160.339844 209.839844 160.339844 C 209.71875 160.339844 209.597656 160.34375 209.46875 160.34375 C 209.382812 160.34375 209.285156 160.339844 209.175781 160.351562 C 208.988281 160.375 208.84375 160.527344 208.84375 160.71875 L 208.84375 160.722656 L 209.210938 160.722656 L 209.191406 160.355469 C 207.492188 160.445312 206.046875 161.398438 205.519531 162.773438 L 205.859375 162.90625 L 205.859375 162.539062 L 204.144531 162.539062 L 205.019531 152.625 L 206.460938 152.625 L 206.460938 152.257812 L 206.117188 152.386719 C 206.640625 153.753906 208.070312 154.710938 209.757812 154.808594 L 209.78125 154.441406 L 209.519531 154.703125 L 209.523438 154.707031 C 209.582031 154.761719 209.652344 154.796875 209.730469 154.808594 C 209.851562 154.828125 209.957031 154.828125 210.042969 154.828125 C 210.15625 154.828125 210.269531 154.828125 210.378906 154.828125 C 210.816406 154.828125 211.207031 154.824219 211.570312 154.773438 C 211.929688 154.71875 212.269531 154.617188 212.554688 154.394531 C 212.882812 154.144531 213.109375 153.765625 213.242188 153.269531 C 213.375 152.769531 213.433594 152.136719 213.433594 151.300781 C 213.433594 150.367188 213.359375 149.683594 213.1875 149.160156 C 213.101562 148.898438 212.984375 148.671875 212.835938 148.488281 C 212.683594 148.300781 212.503906 148.15625 212.300781 148.054688 L 212.136719 148.382812 L 212.304688 148.058594 C 212.035156 147.917969 211.738281 147.855469 211.425781 147.820312 C 211.113281 147.785156 210.773438 147.78125 210.402344 147.78125 C 210.285156 147.78125 210.164062 147.785156 210.042969 147.785156 C 209.957031 147.785156 209.855469 147.78125 209.75 147.792969 C 209.664062 147.804688 209.585938 147.839844 209.523438 147.898438 L 209.519531 147.902344 L 209.78125 148.164062 L 209.757812 147.796875 C 208.070312 147.898438 206.640625 148.851562 206.117188 150.222656 L 206.460938 150.351562 L 206.460938 149.984375 L 205.25 149.984375 L 206.125 140.066406 L 207.011719 140.066406 L 207.011719 139.699219 L 206.667969 139.828125 C 207.1875 141.195312 208.621094 142.152344 210.308594 142.25 L 210.332031 141.886719 L 210.074219 142.144531 L 210.078125 142.148438 C 210.136719 142.207031 210.214844 142.246094 210.296875 142.253906 C 210.410156 142.265625 210.507812 142.265625 210.59375 142.265625 C 210.71875 142.265625 210.84375 142.265625 210.960938 142.265625 C 211.421875 142.261719 211.828125 142.261719 212.207031 142.199219 C 212.488281 142.148438 212.757812 142.066406 212.996094 141.914062 C 213.175781 141.796875 213.335938 141.644531 213.464844 141.457031 C 213.660156 141.175781 213.785156 140.820312 213.867188 140.378906 C 213.949219 139.941406 213.984375 139.40625 213.984375 138.75 L 213.984375 138.746094 C 213.984375 137.582031 213.871094 136.8125 213.585938 136.253906 C 213.464844 136.015625 213.304688 135.816406 213.113281 135.667969 C 212.824219 135.441406 212.484375 135.335938 212.125 135.28125 C 211.757812 135.230469 211.367188 135.226562 210.929688 135.222656 C 210.820312 135.222656 210.707031 135.226562 210.59375 135.226562 C 210.507812 135.226562 210.410156 135.222656 210.296875 135.234375 C 210.214844 135.246094 210.136719 135.28125 210.078125 135.339844 L 210.074219 135.347656 L 210.332031 135.605469 L 210.308594 135.238281 C 208.621094 135.335938 207.1875 136.292969 206.664062 137.664062 L 207.007812 137.792969 L 207.007812 137.425781 L 206.363281 137.425781 L 207.121094 128.796875 L 207.125 128.761719 C 207.125 128.640625 207.125 128.511719 207.125 128.378906 C 207.121094 127.410156 207.109375 126.253906 206.609375 125.277344 C 206.359375 124.789062 205.972656 124.355469 205.421875 124.054688 C 204.871094 123.753906 204.164062 123.589844 203.277344 123.589844 C 203.277344 123.589844 201.84375 123.589844 199.578125 123.589844 C 199.378906 123.589844 199.109375 123.527344 198.792969 123.398438 C 198.234375 123.167969 197.542969 122.746094 196.757812 122.234375 C 195.582031 121.46875 194.207031 120.5 192.695312 119.6875 C 191.1875 118.871094 189.542969 118.207031 187.824219 118.0625 L 187.796875 118.425781 L 188.160156 118.425781 L 188.160156 118.386719 C 188.160156 118.289062 188.125 118.195312 188.054688 118.128906 C 187.984375 118.058594 187.894531 118.019531 187.796875 118.019531 C 187.652344 118.023438 187.546875 118.039062 187.46875 118.039062 L 187.480469 118.40625 L 187.496094 118.039062 C 187.417969 118.039062 187.304688 118.023438 187.160156 118.019531 C 187.066406 118.019531 186.972656 118.058594 186.902344 118.125 C 186.835938 118.195312 186.796875 118.289062 186.796875 118.386719 L 186.796875 118.425781 L 187.160156 118.425781 L 187.132812 118.0625 C 184.511719 118.285156 182.070312 119.703125 180.011719 121.039062 C 178.980469 121.710938 178.046875 122.359375 177.25 122.835938 C 176.847656 123.074219 176.484375 123.265625 176.167969 123.398438 C 175.847656 123.527344 175.582031 123.589844 175.378906 123.589844 C 174.246094 123.589844 173.320312 123.589844 172.679688 123.589844 C 172.039062 123.589844 171.683594 123.589844 171.679688 123.589844 C 170.792969 123.589844 170.09375 123.753906 169.542969 124.054688 C 169.128906 124.277344 168.808594 124.578125 168.570312 124.917969 C 168.210938 125.429688 168.03125 126.023438 167.9375 126.621094 C 167.847656 127.21875 167.835938 127.820312 167.835938 128.367188 C 167.835938 128.503906 167.839844 128.636719 167.839844 128.761719 L 167.839844 128.796875 L 168.597656 137.425781 L 167.941406 137.425781 L 167.941406 137.792969 L 168.285156 137.664062 C 167.765625 136.292969 166.339844 135.332031 164.640625 135.234375 L 164.621094 135.601562 L 164.660156 135.234375 C 164.546875 135.222656 164.449219 135.226562 164.359375 135.226562 C 164.238281 135.226562 164.113281 135.222656 163.996094 135.222656 C 163.535156 135.226562 163.125 135.230469 162.75 135.292969 C 162.464844 135.339844 162.199219 135.421875 161.960938 135.578125 C 161.78125 135.691406 161.621094 135.84375 161.492188 136.035156 C 161.300781 136.316406 161.171875 136.671875 161.089844 137.113281 C 161.011719 137.554688 160.972656 138.089844 160.972656 138.75 C 160.972656 139.53125 161.023438 140.132812 161.140625 140.617188 C 161.230469 140.980469 161.355469 141.277344 161.535156 141.519531 C 161.671875 141.699219 161.835938 141.84375 162.019531 141.949219 C 162.296875 142.109375 162.601562 142.183594 162.925781 142.222656 C 163.253906 142.261719 163.605469 142.265625 163.992188 142.265625 C 164.113281 142.265625 164.234375 142.265625 164.359375 142.265625 C 164.449219 142.261719 164.546875 142.265625 164.660156 142.253906 L 164.621094 141.890625 L 164.640625 142.253906 C 166.339844 142.15625 167.765625 141.195312 168.289062 139.832031 L 167.949219 139.699219 L 167.949219 140.066406 L 168.832031 140.066406 L 169.707031 149.984375 L 168.5 149.984375 L 168.5 150.351562 L 168.839844 150.222656 C 168.316406 148.851562 166.886719 147.894531 165.199219 147.796875 L 165.179688 148.164062 L 165.425781 147.894531 L 165.421875 147.890625 C 165.363281 147.835938 165.289062 147.800781 165.210938 147.792969 C 165.101562 147.78125 165.003906 147.785156 164.917969 147.785156 C 164.804688 147.785156 164.691406 147.78125 164.582031 147.78125 C 163.992188 147.785156 163.488281 147.789062 163.027344 147.914062 C 162.796875 147.980469 162.578125 148.082031 162.386719 148.230469 C 162.191406 148.382812 162.035156 148.585938 161.914062 148.828125 L 161.914062 148.824219 C 161.632812 149.386719 161.527344 150.152344 161.523438 151.300781 L 161.523438 151.308594 C 161.523438 152.089844 161.578125 152.695312 161.695312 153.179688 C 161.78125 153.542969 161.910156 153.839844 162.089844 154.082031 C 162.226562 154.261719 162.394531 154.40625 162.578125 154.511719 C 162.855469 154.671875 163.164062 154.746094 163.492188 154.785156 C 163.820312 154.824219 164.171875 154.828125 164.5625 154.828125 L 164.917969 154.828125 C 165.003906 154.828125 165.109375 154.828125 165.230469 154.808594 C 165.300781 154.796875 165.367188 154.765625 165.421875 154.71875 L 165.425781 154.714844 L 165.179688 154.441406 L 165.199219 154.808594 C 166.886719 154.710938 168.316406 153.757812 168.839844 152.386719 L 168.5 152.257812 L 168.5 152.625 L 169.941406 152.625 L 170.816406 162.539062 L 169.097656 162.539062 L 169.097656 162.90625 L 169.441406 162.773438 C 168.914062 161.398438 167.464844 160.441406 165.761719 160.355469 L 165.742188 160.722656 L 166.109375 160.722656 L 166.109375 160.71875 C 166.109375 160.527344 165.964844 160.375 165.78125 160.351562 C 165.667969 160.339844 165.570312 160.34375 165.484375 160.34375 C 165.359375 160.34375 165.238281 160.339844 165.117188 160.339844 C 164.65625 160.339844 164.246094 160.347656 163.867188 160.410156 C 163.585938 160.457031 163.320312 160.539062 163.078125 160.695312 C 162.898438 160.808594 162.738281 160.960938 162.613281 161.152344 C 162.417969 161.4375 162.292969 161.789062 162.210938 162.230469 C 162.128906 162.671875 162.089844 163.207031 162.089844 163.871094 C 162.089844 164.652344 162.144531 165.253906 162.261719 165.738281 C 162.347656 166.101562 162.476562 166.402344 162.660156 166.640625 C 162.792969 166.820312 162.960938 166.964844 163.144531 167.070312 C 163.421875 167.230469 163.726562 167.304688 164.054688 167.34375 C 164.386719 167.382812 164.738281 167.386719 165.128906 167.386719 C 165.242188 167.386719 165.363281 167.386719 165.484375 167.386719 C 165.570312 167.386719 165.675781 167.386719 165.796875 167.367188 L 165.742188 167.003906 L 165.761719 167.371094 C 166.617188 167.328125 167.402344 167.066406 168.042969 166.640625 C 168.683594 166.222656 169.183594 165.636719 169.441406 164.945312 L 169.097656 164.816406 L 169.097656 165.183594 L 171.046875 165.183594 L 171.425781 169.496094 L 171.792969 169.464844 L 171.425781 169.464844 C 171.425781 172.742188 173.710938 175.476562 176.773438 176.179688 L 176.855469 175.824219 L 176.488281 175.824219 L 176.488281 176.535156 L 176.855469 176.535156 L 176.488281 176.527344 L 176.304688 186.035156 L 176.285156 187.128906 L 176.136719 194.765625 L 176.117188 195.863281 L 175.957031 204.144531 L 175.945312 204.804688 L 175.757812 214.476562 L 175.746094 215.035156 L 175.714844 216.800781 L 176.078125 216.808594 L 176.316406 216.53125 C 168.34375 209.707031 158.054688 198.417969 149.765625 185.621094 C 148.03125 182.953125 146.386719 180.214844 144.871094 177.4375 C 139.054688 166.839844 135.085938 155.660156 135.085938 145.429688 C 135.085938 136.902344 136.320312 130.011719 138.664062 124.476562 C 142.1875 116.175781 148.191406 110.894531 156.429688 107.652344 C 164.667969 104.410156 175.136719 103.238281 187.480469 103.242188 L 187.480469 102.875 " fill-opacity="1" fill-rule="nonzero"/></g><path fill="#2d9596" d="M 194.230469 153.921875 L 194.628906 152.257812 L 194.316406 152.257812 Z M 194.230469 153.921875 " fill-opacity="1" fill-rule="nonzero"/><path fill="#2d9596" d="M 194.230469 153.921875 L 194.589844 154.007812 L 194.984375 152.34375 C 195.011719 152.234375 194.984375 152.121094 194.917969 152.03125 C 194.847656 151.945312 194.742188 151.890625 194.628906 151.890625 L 194.316406 151.890625 C 194.125 151.890625 193.960938 152.046875 193.953125 152.238281 L 193.867188 153.902344 C 193.855469 154.089844 193.992188 154.257812 194.179688 154.285156 C 194.367188 154.3125 194.542969 154.191406 194.589844 154.007812 L 194.230469 153.921875 L 194.597656 153.941406 L 194.683594 152.277344 L 194.316406 152.257812 L 194.316406 152.625 L 194.628906 152.625 L 194.628906 152.257812 L 194.273438 152.171875 L 193.875 153.835938 L 194.230469 153.921875 L 194.597656 153.941406 L 194.230469 153.921875 " fill-opacity="1" fill-rule="nonzero"/><path fill="#2d9596" d="M 194.410156 150.351562 L 195.085938 150.351562 L 197.632812 139.699219 L 194.945312 139.699219 L 194.410156 150.351562 " fill-opacity="1" fill-rule="nonzero"/><path fill="#2d9596" d="M 194.410156 150.351562 L 194.410156 150.71875 L 195.085938 150.71875 C 195.253906 150.71875 195.402344 150.601562 195.441406 150.4375 L 197.992188 139.785156 C 198.015625 139.675781 197.992188 139.5625 197.921875 139.472656 C 197.851562 139.386719 197.746094 139.335938 197.632812 139.335938 L 194.945312 139.335938 C 194.75 139.335938 194.589844 139.488281 194.582031 139.683594 L 194.046875 150.332031 C 194.039062 150.433594 194.078125 150.53125 194.144531 150.605469 C 194.214844 150.675781 194.3125 150.71875 194.410156 150.71875 L 194.410156 150.351562 L 194.777344 150.371094 L 195.296875 140.066406 L 197.167969 140.066406 L 194.796875 149.984375 L 194.410156 149.984375 L 194.410156 150.351562 L 194.777344 150.371094 L 194.410156 150.351562 " fill-opacity="1" fill-rule="nonzero"/><path fill="#2d9596" d="M 193.5 168.503906 C 193.742188 167.335938 194.003906 166.089844 194.265625 164.816406 L 193.6875 164.816406 L 193.5 168.503906 " fill-opacity="1" fill-rule="nonzero"/><path fill="#2d9596" d="M 193.5 168.503906 L 193.859375 168.578125 C 194.101562 167.414062 194.363281 166.164062 194.625 164.890625 C 194.644531 164.78125 194.617188 164.671875 194.546875 164.585938 C 194.480469 164.5 194.375 164.449219 194.265625 164.449219 L 193.6875 164.449219 C 193.488281 164.449219 193.328125 164.605469 193.320312 164.796875 L 193.136719 168.488281 C 193.125 168.675781 193.265625 168.84375 193.453125 168.867188 C 193.644531 168.890625 193.820312 168.765625 193.859375 168.578125 L 193.5 168.503906 L 193.867188 168.523438 L 194.035156 165.183594 L 194.265625 165.183594 L 194.265625 164.816406 L 193.90625 164.742188 C 193.644531 166.015625 193.382812 167.261719 193.140625 168.429688 L 193.5 168.503906 L 193.867188 168.523438 L 193.5 168.503906 " fill-opacity="1" fill-rule="nonzero"/><path fill="#2d9596" d="M 193.78125 162.90625 L 194.660156 162.90625 C 195.519531 158.753906 196.375 154.609375 196.863281 152.257812 L 195.367188 152.257812 L 194.035156 157.816406 L 193.78125 162.90625 " fill-opacity="1" fill-rule="nonzero"/><path fill="#2d9596" d="M 193.78125 162.90625 L 193.78125 163.273438 L 194.660156 163.273438 C 194.835938 163.273438 194.984375 163.148438 195.019531 162.980469 C 195.878906 158.828125 196.734375 154.683594 197.222656 152.332031 C 197.242188 152.226562 197.214844 152.113281 197.148438 152.027344 C 197.078125 151.941406 196.972656 151.890625 196.863281 151.890625 L 195.367188 151.890625 C 195.199219 151.890625 195.050781 152.007812 195.011719 152.171875 L 193.679688 157.730469 L 193.671875 157.796875 L 193.417969 162.886719 C 193.414062 162.988281 193.449219 163.085938 193.519531 163.160156 C 193.585938 163.230469 193.683594 163.273438 193.78125 163.273438 L 193.78125 162.90625 L 194.148438 162.925781 L 194.398438 157.867188 L 195.65625 152.625 L 196.863281 152.625 L 196.863281 152.257812 L 196.503906 152.183594 C 196.019531 154.53125 195.160156 158.679688 194.300781 162.832031 L 194.660156 162.90625 L 194.660156 162.539062 L 193.78125 162.539062 L 193.78125 162.90625 L 194.148438 162.925781 L 193.78125 162.90625 " fill-opacity="1" fill-rule="nonzero"/><path fill="#2d9596" d="M 196.742188 164.816406 L 196.25 164.816406 L 195.824219 169.371094 C 196.183594 169.066406 196.425781 168.628906 196.46875 168.125 L 196.742188 164.816406 " fill-opacity="1" fill-rule="nonzero"/><path fill="#2d9596" d="M 196.742188 164.816406 L 196.742188 164.449219 L 196.25 164.449219 C 196.0625 164.449219 195.902344 164.59375 195.882812 164.785156 L 195.460938 169.335938 C 195.445312 169.484375 195.523438 169.625 195.65625 169.695312 C 195.789062 169.765625 195.949219 169.746094 196.0625 169.648438 C 196.492188 169.285156 196.78125 168.757812 196.832031 168.15625 L 197.105469 164.847656 C 197.113281 164.746094 197.078125 164.644531 197.007812 164.570312 C 196.941406 164.492188 196.84375 164.449219 196.742188 164.449219 L 196.742188 164.816406 L 196.375 164.785156 L 196.101562 168.09375 C 196.066406 168.496094 195.878906 168.84375 195.585938 169.089844 L 195.824219 169.371094 L 196.191406 169.40625 L 196.582031 165.183594 L 196.742188 165.183594 L 196.742188 164.816406 L 196.375 164.785156 L 196.742188 164.816406 " fill-opacity="1" fill-rule="nonzero"/><path fill="#2d9596" d="M 198.78125 139.699219 L 198.371094 139.699219 L 195.820312 150.351562 L 197.257812 150.351562 L 197.269531 150.304688 C 197.296875 150.171875 197.425781 150.09375 197.554688 150.113281 C 197.664062 150.140625 197.734375 150.242188 197.734375 150.351562 L 197.917969 150.351562 L 198.78125 139.699219 " fill-opacity="1" fill-rule="nonzero"/><path fill="#2d9596" d="M 198.78125 139.699219 L 198.78125 139.335938 L 198.371094 139.335938 C 198.199219 139.335938 198.050781 139.449219 198.011719 139.613281 L 195.464844 150.265625 C 195.4375 150.375 195.464844 150.488281 195.535156 150.578125 C 195.601562 150.667969 195.707031 150.71875 195.820312 150.71875 L 197.257812 150.71875 C 197.425781 150.71875 197.574219 150.601562 197.613281 150.441406 L 197.625 150.394531 L 197.632812 150.371094 L 197.496094 150.34375 L 197.582031 150.453125 C 197.601562 150.4375 197.625 150.402344 197.632812 150.371094 L 197.496094 150.34375 L 197.582031 150.453125 L 197.511719 150.363281 L 197.511719 150.476562 L 197.582031 150.453125 L 197.511719 150.363281 L 197.511719 150.476562 L 197.511719 150.308594 L 197.476562 150.472656 L 197.511719 150.476562 L 197.511719 150.308594 L 197.476562 150.472656 L 197.554688 150.113281 L 197.472656 150.472656 L 197.5 150.339844 L 197.394531 150.421875 L 197.472656 150.472656 L 197.5 150.339844 L 197.394531 150.421875 L 197.488281 150.351562 L 197.371094 150.351562 L 197.394531 150.421875 L 197.488281 150.351562 L 197.371094 150.351562 C 197.371094 150.449219 197.410156 150.542969 197.476562 150.609375 C 197.546875 150.679688 197.640625 150.71875 197.734375 150.71875 L 197.917969 150.71875 C 198.105469 150.71875 198.265625 150.570312 198.28125 150.382812 L 199.148438 139.730469 C 199.15625 139.628906 199.121094 139.527344 199.050781 139.453125 C 198.980469 139.378906 198.882812 139.335938 198.78125 139.335938 L 198.78125 139.699219 L 198.417969 139.671875 L 197.550781 150.324219 L 197.917969 150.351562 L 197.917969 149.984375 L 197.734375 149.984375 L 197.734375 150.351562 L 198.101562 150.351562 C 198.101562 150.214844 198.058594 150.085938 197.976562 149.980469 C 197.898438 149.875 197.777344 149.789062 197.632812 149.757812 L 197.628906 149.757812 C 197.582031 149.746094 197.542969 149.746094 197.511719 149.746094 C 197.371094 149.746094 197.242188 149.789062 197.132812 149.875 C 197.023438 149.957031 196.9375 150.085938 196.910156 150.238281 L 197.269531 150.304688 L 196.917969 150.214844 L 196.902344 150.261719 L 197.257812 150.351562 L 197.257812 149.984375 L 196.285156 149.984375 L 198.65625 140.066406 L 198.78125 140.066406 L 198.78125 139.699219 L 198.417969 139.671875 L 198.78125 139.699219 " fill-opacity="1" fill-rule="nonzero"/><path fill="#2d9596" d="M 193.765625 169.582031 C 194 169.710938 194.265625 169.796875 194.546875 169.808594 C 194.917969 169.828125 195.269531 169.734375 195.570312 169.558594 L 196.011719 164.816406 L 194.75 164.816406 L 193.765625 169.582031 " fill-opacity="1" fill-rule="nonzero"/><path fill="#2d9596" d="M 193.765625 169.582031 L 193.589844 169.90625 C 193.867188 170.054688 194.183594 170.15625 194.53125 170.171875 L 194.527344 170.171875 C 194.566406 170.175781 194.605469 170.175781 194.644531 170.175781 C 195.046875 170.175781 195.429688 170.066406 195.753906 169.875 C 195.855469 169.8125 195.921875 169.710938 195.933594 169.59375 L 196.375 164.851562 C 196.386719 164.75 196.351562 164.648438 196.285156 164.570312 C 196.214844 164.492188 196.117188 164.449219 196.011719 164.449219 L 194.75 164.449219 C 194.578125 164.449219 194.425781 164.574219 194.390625 164.742188 L 193.410156 169.507812 C 193.375 169.667969 193.449219 169.828125 193.589844 169.90625 L 193.765625 169.582031 L 194.125 169.65625 L 195.050781 165.183594 L 195.609375 165.183594 L 195.203125 169.523438 L 195.570312 169.558594 L 195.382812 169.242188 C 195.164062 169.371094 194.914062 169.445312 194.644531 169.445312 L 194.566406 169.441406 L 194.5625 169.441406 C 194.34375 169.433594 194.132812 169.367188 193.941406 169.261719 L 193.765625 169.582031 L 194.125 169.65625 L 193.765625 169.582031 " fill-opacity="1" fill-rule="nonzero"/><path fill="#2d9596" d="M 197.761719 152.257812 L 197.351562 152.257812 L 195.148438 162.90625 L 196.1875 162.90625 L 196.195312 162.898438 C 196.195312 162.835938 196.25 162.785156 196.3125 162.785156 L 196.316406 162.792969 C 196.382812 162.796875 196.425781 162.847656 196.425781 162.90625 L 196.890625 162.90625 L 197.761719 152.257812 " fill-opacity="1" fill-rule="nonzero"/><path fill="#2d9596" d="M 197.761719 152.257812 L 197.761719 151.890625 L 197.351562 151.890625 C 197.179688 151.890625 197.03125 152.015625 196.992188 152.183594 L 194.789062 162.832031 C 194.765625 162.941406 194.792969 163.050781 194.863281 163.136719 C 194.933594 163.222656 195.039062 163.273438 195.148438 163.273438 L 196.1875 163.273438 C 196.316406 163.273438 196.433594 163.207031 196.5 163.097656 L 196.503906 163.089844 C 196.539062 163.035156 196.554688 162.980469 196.558594 162.921875 L 196.3125 162.90625 L 196.3125 163.152344 C 196.449219 163.148438 196.546875 163.058594 196.558594 162.921875 L 196.3125 162.90625 L 196.3125 163.152344 L 196.3125 162.785156 L 196.113281 163.097656 L 196.121094 163.101562 C 196.175781 163.132812 196.234375 163.15625 196.296875 163.15625 L 196.3125 162.902344 L 196.121094 163.070312 C 196.164062 163.121094 196.234375 163.15625 196.296875 163.15625 L 196.3125 162.902344 L 196.121094 163.070312 L 196.308594 162.90625 L 196.058594 162.90625 C 196.058594 162.964844 196.078125 163.019531 196.121094 163.070312 L 196.308594 162.90625 L 196.058594 162.90625 C 196.058594 163.003906 196.097656 163.097656 196.167969 163.164062 C 196.234375 163.234375 196.328125 163.273438 196.425781 163.273438 L 196.890625 163.273438 C 197.082031 163.273438 197.242188 163.125 197.253906 162.933594 L 198.125 152.289062 C 198.132812 152.1875 198.097656 152.085938 198.03125 152.011719 C 197.960938 151.9375 197.863281 151.890625 197.761719 151.890625 L 197.761719 152.257812 L 197.394531 152.230469 L 196.554688 162.539062 L 196.425781 162.539062 L 196.425781 162.90625 L 196.792969 162.90625 C 196.792969 162.789062 196.75 162.679688 196.671875 162.585938 C 196.59375 162.496094 196.46875 162.433594 196.339844 162.425781 L 196.316406 162.792969 L 196.515625 162.484375 L 196.507812 162.476562 C 196.449219 162.441406 196.382812 162.421875 196.3125 162.421875 C 196.050781 162.425781 195.847656 162.617188 195.828125 162.875 L 196.195312 162.898438 L 195.878906 162.707031 L 195.875 162.714844 L 196.1875 162.90625 L 196.1875 162.539062 L 195.597656 162.539062 L 197.648438 152.625 L 197.761719 152.625 L 197.761719 152.257812 L 197.394531 152.230469 L 197.761719 152.257812 " fill-opacity="1" fill-rule="nonzero"/><g fill="#2d9596" fill-opacity="1"><g transform="translate(152.438439, 240.757719)"><g><path d="M 13.71875 0 C 13.71875 0 12.914062 -0.105469 12.914062 -1.777344 L 12.914062 -5.570312 C 12.914062 -7.304688 13.71875 -7.410156 13.71875 -7.410156 L 5.527344 -7.410156 L 5.546875 -4.679688 C 5.546875 -4.679688 6.054688 -6.648438 10.246094 -6.773438 C 10.351562 -6.519531 10.417969 -6.140625 10.417969 -5.609375 C 10.417969 -5.609375 10.417969 -5.609375 10.417969 -2.859375 C 10.417969 -0.550781 8.660156 -0.613281 7.601562 -0.613281 C 4.910156 -0.613281 2.730469 -3.558594 2.730469 -7.175781 C 2.730469 -11.179688 4.765625 -13.636719 7.898438 -13.636719 C 10.417969 -13.636719 11.410156 -11.878906 11.496094 -10.351562 L 13.675781 -11.433594 C 12.726562 -13.316406 10.566406 -14.164062 7.875 -14.164062 C 2.816406 -14.164062 0.210938 -10.628906 0.210938 -7.007812 C 0.210938 -3.007812 3.515625 0.253906 7.601562 0.253906 C 9.972656 0.253906 10.96875 -0.253906 13.71875 0 Z M 13.71875 0 "/></g></g></g><g fill="#2d9596" fill-opacity="1"><g transform="translate(166.364387, 240.757719)"><g><path d="M 10.015625 -4.109375 C 10.015625 -2.097656 9.335938 -0.488281 6.710938 -0.488281 C 4.066406 -0.488281 3.492188 -2.097656 3.492188 -4.109375 L 3.492188 -12.300781 C 3.492188 -13.972656 4.277344 -14.101562 4.277344 -14.101562 L 0.210938 -14.101562 C 0.210938 -14.101562 0.996094 -13.996094 0.996094 -12.257812 L 1.015625 -4.066406 C 1.015625 -1.820312 2.433594 0 6.480469 0 C 10.523438 0 11.117188 -1.800781 11.136719 -4.066406 L 11.136719 -12.324219 C 11.136719 -13.996094 11.921875 -14.121094 11.921875 -14.121094 L 9.230469 -14.121094 C 9.230469 -14.121094 10.015625 -14.015625 10.015625 -12.28125 Z M 10.015625 -4.109375 "/></g></g></g><g fill="#2d9596" fill-opacity="1"><g transform="translate(178.491393, 240.757719)"><g><path d="M 4.277344 -14.121094 L 0.210938 -14.121094 C 0.210938 -14.121094 0.972656 -13.996094 0.972656 -12.324219 L 0.972656 -1.800781 C 0.972656 -0.105469 0.210938 0 0.210938 0 L 4.277344 0 C 4.277344 0 3.472656 -0.105469 3.472656 -1.777344 L 3.472656 -12.28125 C 3.472656 -14.015625 4.277344 -14.121094 4.277344 -14.121094 Z M 4.277344 -14.121094 "/></g></g></g><g fill="#2d9596" fill-opacity="1"><g transform="translate(182.978175, 240.757719)"><g><path d="M 0.210938 -14.121094 L 0.210938 -11.390625 C 0.210938 -11.390625 0.699219 -13.210938 4.46875 -13.464844 C 4.574219 -13.210938 4.636719 -12.832031 4.636719 -12.324219 L 4.636719 -1.800781 C 4.636719 -0.128906 3.875 0 3.875 0 L 7.941406 0 C 7.941406 0 7.136719 -0.105469 7.136719 -1.84375 L 7.136719 -12.34375 C 7.136719 -12.851562 7.21875 -13.210938 7.304688 -13.464844 C 11.117188 -13.210938 11.601562 -11.390625 11.601562 -11.390625 L 11.625 -14.121094 Z M 0.210938 -14.121094 "/></g></g></g><g fill="#2d9596" fill-opacity="1"><g transform="translate(194.808882, 240.757719)"><g><path d="M 10.945312 0 L 15.011719 0 C 15.011719 0 14.1875 -0.105469 13.550781 -1.777344 L 9.613281 -12.28125 C 8.914062 -13.929688 8.425781 -14.121094 8.023438 -14.121094 L 5.503906 -14.121094 C 5.503906 -14.121094 6.265625 -14.015625 5.609375 -12.28125 L 1.671875 -1.777344 C 1.039062 -0.105469 0.210938 0 0.210938 0 L 2.902344 0 C 2.902344 0 2.160156 -0.105469 2.792969 -1.800781 L 3.980469 -4.933594 L 9.867188 -4.933594 L 11.050781 -1.800781 C 11.6875 -0.105469 10.945312 0 10.945312 0 Z M 4.320312 -5.84375 L 6.753906 -12.324219 C 6.796875 -12.46875 6.859375 -12.617188 6.921875 -12.746094 C 6.988281 -12.617188 7.050781 -12.46875 7.09375 -12.324219 L 9.527344 -5.84375 Z M 4.320312 -5.84375 "/></g></g></g><g fill="#2d9596" fill-opacity="1"><g transform="translate(210.025838, 240.757719)"><g><path d="M 8.234375 0 L 12.300781 0 C 12.300781 0 11.453125 -0.105469 10.566406 -1.777344 L 8.636719 -5.355469 C 10.777344 -5.90625 12.28125 -7.285156 12.28125 -9.65625 C 12.28125 -12.832031 8.976562 -14.121094 4.890625 -14.121094 C 4.636719 -14.121094 0.210938 -14.121094 0.210938 -14.121094 C 0.210938 -14.121094 0.972656 -13.996094 0.972656 -12.324219 L 0.972656 -1.800781 C 0.972656 -0.105469 0.210938 0 0.210938 0 L 4.277344 0 C 4.277344 0 3.472656 -0.105469 3.472656 -1.777344 L 3.472656 -5.230469 C 4.085938 -5.167969 5.738281 -5.101562 6.289062 -5.101562 L 8.066406 -1.800781 C 8.976562 -0.105469 8.234375 0 8.234375 0 Z M 4.871094 -5.863281 C 4.488281 -5.863281 3.960938 -5.929688 3.472656 -6.035156 L 3.472656 -12.28125 C 3.472656 -12.578125 3.492188 -12.832031 3.535156 -13.042969 C 3.960938 -13.191406 4.425781 -13.273438 4.890625 -13.273438 C 7.578125 -13.273438 9.761719 -12.195312 9.761719 -9.507812 C 9.761719 -6.839844 7.558594 -5.863281 4.871094 -5.863281 Z M 4.871094 -5.863281 "/></g></g></g><g fill="#2d9596" fill-opacity="1"><g transform="translate(160.512657, 260.392425)"><g><path d="M 13.71875 0 C 13.71875 0 12.914062 -0.105469 12.914062 -1.777344 L 12.914062 -5.570312 C 12.914062 -7.304688 13.71875 -7.410156 13.71875 -7.410156 L 5.527344 -7.410156 L 5.546875 -4.679688 C 5.546875 -4.679688 6.054688 -6.648438 10.246094 -6.773438 C 10.351562 -6.519531 10.417969 -6.140625 10.417969 -5.609375 C 10.417969 -5.609375 10.417969 -5.609375 10.417969 -2.859375 C 10.417969 -0.550781 8.660156 -0.613281 7.601562 -0.613281 C 4.910156 -0.613281 2.730469 -3.558594 2.730469 -7.175781 C 2.730469 -11.179688 4.765625 -13.636719 7.898438 -13.636719 C 10.417969 -13.636719 11.410156 -11.878906 11.496094 -10.351562 L 13.675781 -11.433594 C 12.726562 -13.316406 10.566406 -14.164062 7.875 -14.164062 C 2.816406 -14.164062 0.210938 -10.628906 0.210938 -7.007812 C 0.210938 -3.007812 3.515625 0.253906 7.601562 0.253906 C 9.972656 0.253906 10.96875 -0.253906 13.71875 0 Z M 13.71875 0 "/></g></g></g><g fill="#2d9596" fill-opacity="1"><g transform="translate(174.438605, 260.392425)"><g><path d="M 4.277344 -14.121094 L 0.210938 -14.121094 C 0.210938 -14.121094 0.972656 -13.996094 0.972656 -12.324219 L 0.972656 -1.800781 C 0.972656 -0.105469 0.210938 0 0.210938 0 L 4.277344 0 C 4.277344 0 3.472656 -0.105469 3.472656 -1.777344 L 3.472656 -12.28125 C 3.472656 -14.015625 4.277344 -14.121094 4.277344 -14.121094 Z M 4.277344 -14.121094 "/></g></g></g><g fill="#2d9596" fill-opacity="1"><g transform="translate(178.925387, 260.392425)"><g><path d="M 8.234375 0 L 12.300781 0 C 12.300781 0 11.453125 -0.105469 10.566406 -1.777344 L 8.636719 -5.355469 C 10.777344 -5.90625 12.28125 -7.285156 12.28125 -9.65625 C 12.28125 -12.832031 8.976562 -14.121094 4.890625 -14.121094 C 4.636719 -14.121094 0.210938 -14.121094 0.210938 -14.121094 C 0.210938 -14.121094 0.972656 -13.996094 0.972656 -12.324219 L 0.972656 -1.800781 C 0.972656 -0.105469 0.210938 0 0.210938 0 L 4.277344 0 C 4.277344 0 3.472656 -0.105469 3.472656 -1.777344 L 3.472656 -5.230469 C 4.085938 -5.167969 5.738281 -5.101562 6.289062 -5.101562 L 8.066406 -1.800781 C 8.976562 -0.105469 8.234375 0 8.234375 0 Z M 4.871094 -5.863281 C 4.488281 -5.863281 3.960938 -5.929688 3.472656 -6.035156 L 3.472656 -12.28125 C 3.472656 -12.578125 3.492188 -12.832031 3.535156 -13.042969 C 3.960938 -13.191406 4.425781 -13.273438 4.890625 -13.273438 C 7.578125 -13.273438 9.761719 -12.195312 9.761719 -9.507812 C 9.761719 -6.839844 7.558594 -5.863281 4.871094 -5.863281 Z M 4.871094 -5.863281 "/></g></g></g><g fill="#2d9596" fill-opacity="1"><g transform="translate(191.433344, 260.392425)"><g><path d="M 10.648438 0 L 10.628906 -2.730469 C 10.628906 -2.730469 10.078125 -0.613281 5.460938 -0.613281 L 3.664062 -0.613281 C 3.558594 -0.890625 3.472656 -1.25 3.472656 -1.777344 L 3.472656 -12.28125 C 3.472656 -14.015625 4.277344 -14.121094 4.277344 -14.121094 L 0.210938 -14.121094 C 0.210938 -14.121094 0.972656 -13.996094 0.972656 -12.324219 L 0.972656 -1.800781 C 0.972656 -0.105469 0.210938 0 0.210938 0 Z M 10.648438 0 "/></g></g></g><g fill="#2d9596" fill-opacity="1"><g transform="translate(202.290502, 260.392425)"><g><path d="M 4.574219 -7.390625 C 6.160156 -6.859375 9.441406 -5.675781 9.441406 -3.558594 C 9.441406 -1.441406 7.898438 -0.824219 6.117188 -0.824219 C 3.578125 -0.824219 2.308594 -2.730469 2.074219 -4 L 0.210938 -1.695312 C 1.164062 -0.699219 3.492188 0 5.609375 0 C 9.1875 0 11.960938 -0.699219 11.960938 -3.851562 C 11.960938 -7.007812 9.230469 -7.960938 6.605469 -8.957031 C 4.148438 -9.910156 3.28125 -9.78125 3.28125 -11.453125 C 3.28125 -12.300781 3.769531 -13.421875 5.78125 -13.421875 C 8.128906 -13.421875 9.992188 -11.601562 10.140625 -11.03125 L 11.347656 -12.871094 C 10.097656 -13.464844 8.128906 -14.101562 5.78125 -14.101562 C 3.640625 -14.101562 0.996094 -13.488281 0.996094 -10.863281 C 0.996094 -9.253906 2.179688 -8.214844 4.574219 -7.390625 Z M 4.574219 -7.390625 "/></g></g></g></svg>