<svg width="130" height="130" viewBox="0 0 130 130" fill="none" xmlns="http://www.w3.org/2000/svg">
<path d="M128.733 18.6005L111.398 1.2671C110.664 0.533853 109.691 0.0884355 108.656 0.0118301C107.621 -0.0647753 106.593 0.232518 105.759 0.84966C104.924 1.4668 104.339 2.36281 104.11 3.3748C103.88 4.38678 104.021 5.44753 104.508 6.3642L71.7781 39.0864C59.4327 32.6622 45.6084 33.1985 37.2337 41.5672C35.0236 43.7866 33.2924 46.4358 32.1471 49.351C31.7954 50.1413 31.2216 50.8124 30.4955 51.2827C29.7694 51.7529 28.9223 52.002 28.0573 51.9998C20.1538 52.2652 13.2904 55.0981 8.20383 60.1844C1.66005 66.744 -1.0918 76.1582 0.392469 86.7045C1.8334 96.7957 7.07167 106.79 15.1593 114.833C23.2469 122.877 33.2197 128.137 43.3279 129.577C45.1392 129.848 46.9676 129.989 48.7991 130C57.098 130 64.4164 127.167 69.7955 121.788C74.8821 116.702 77.7152 109.839 77.9806 101.936C77.9797 101.069 78.2313 100.221 78.7046 99.4948C79.1779 98.7685 79.8524 98.1958 80.6458 97.8466C83.5615 96.7021 86.211 94.9709 88.4301 92.7603C96.7994 84.3861 97.3357 70.5519 90.9111 58.2181L123.635 25.4905C124.552 25.9768 125.613 26.1181 126.625 25.8885C127.637 25.659 128.533 25.0739 129.15 24.2397C129.767 23.4055 130.065 22.3775 129.988 21.3426C129.912 20.3078 129.466 19.3348 128.733 18.6005ZM103.999 32.868L97.1298 25.9997L110.499 12.6259L117.373 19.4997L103.999 32.868ZM82.3305 86.6286C80.9492 88.004 79.2986 89.0791 77.4823 89.7865C75.1217 90.7591 73.0959 92.3986 71.6528 94.5045C70.2096 96.6104 69.4117 99.0914 69.3567 101.644C69.1617 107.31 67.1899 112.157 63.7068 115.662C59.1348 120.228 52.331 122.135 44.5521 121.019C36.2857 119.844 28.0139 115.478 21.2643 108.729C14.5147 101.979 10.1485 93.7082 8.97305 85.4803C7.88964 77.6965 9.76394 70.8986 14.3305 66.3269C17.8353 62.8331 22.6836 60.8723 28.3498 60.6665C30.9026 60.6128 33.3843 59.8155 35.4906 58.3723C37.5968 56.9291 39.2362 54.9026 40.2077 52.5414C40.9119 50.7155 41.9872 49.0555 43.3658 47.6664C46.3397 44.6927 50.4079 43.2627 54.9474 43.2627C58.5186 43.3198 62.0421 44.0915 65.3102 45.5322L54.4328 56.436C51.1857 56.7935 48.1057 58.0612 45.5479 60.093C42.99 62.1247 41.0583 64.8379 39.9755 67.9197C38.8927 71.0015 38.7027 74.3266 39.4276 77.5116C40.1525 80.6967 41.7627 83.6121 44.0726 85.9218C46.3825 88.2316 49.2981 89.8417 52.4834 90.5665C55.6686 91.2914 58.9939 91.1015 62.0759 90.0187C65.1579 88.9359 67.8713 87.0044 69.9032 84.4467C71.935 81.889 73.2028 78.8092 73.5603 75.5623L84.4377 64.6856C87.9696 72.9677 87.4604 81.4719 82.3305 86.6286ZM76.6968 53.3268C77.8417 54.4784 78.9145 55.6995 79.9091 56.9831L71.556 65.3356C69.9625 62.4424 67.5807 60.0607 64.6872 58.4673L73.0403 50.1093C74.3148 51.1066 75.5269 52.1811 76.6697 53.3268H76.6968ZM56.3288 64.9998C58.6274 64.9998 60.832 65.9129 62.4574 67.5382C64.0828 69.1635 64.996 71.3679 64.996 73.6665C64.996 75.3806 64.4877 77.0562 63.5353 78.4815C62.5829 79.9067 61.2293 81.0175 59.6456 81.6735C58.0618 82.3294 56.3191 82.5011 54.6379 82.1667C52.9566 81.8323 51.4122 81.0068 50.2001 79.7948C48.9879 78.5827 48.1625 77.0385 47.828 75.3573C47.4936 73.6761 47.6652 71.9335 48.3213 70.3499C48.9773 68.7663 50.0882 67.4127 51.5135 66.4604C52.9388 65.5081 54.6145 64.9998 56.3288 64.9998ZM82.791 47.206C81.641 46.0597 80.4313 44.9748 79.167 43.956L90.9978 32.1259L97.872 38.9997L86.0466 50.8189C85.0262 49.5576 83.9414 48.3499 82.7964 47.2006L82.791 47.206ZM46.3885 100.934C47.2017 101.746 47.6588 102.849 47.6593 103.998C47.6598 105.147 47.2037 106.25 46.3912 107.063C45.5788 107.876 44.4766 108.333 43.3271 108.334C42.1776 108.334 41.075 107.878 40.2618 107.066L22.9273 89.7324C22.1149 88.9193 21.6587 87.8167 21.6592 86.6673C21.6598 85.5179 22.1169 84.4158 22.93 83.6034C23.7432 82.791 24.8458 82.3349 25.9953 82.3354C27.1448 82.3359 28.247 82.793 29.0594 83.6061L46.3885 100.934Z" fill="#ECF4D6"/>
</svg>
