<svg width="130" height="130" viewBox="0 0 130 130" fill="none" xmlns="http://www.w3.org/2000/svg">
<path d="M110.451 20.6943L65.5078 42.0225C64.1563 41.1144 62.5657 40.628 60.9375 40.625C58.7826 40.625 56.716 41.481 55.1923 43.0047C53.6685 44.5285 52.8125 46.5951 52.8125 48.75C52.8125 50.9048 53.6685 52.9715 55.1923 54.4952C56.716 56.0189 58.7826 56.875 60.9375 56.875C65.2031 56.875 68.7456 53.5722 69.0625 49.3837L93.6934 37.704C101.067 40.8159 105.625 44.8784 105.625 48.75C105.625 56.4159 88.2497 65 65 65C41.7503 65 24.375 56.4159 24.375 48.75C24.375 41.084 41.7503 32.5 65 32.5C65.6987 32.5 66.3325 32.4837 67.0312 32.5L81.3759 25.7725C75.9658 24.8508 70.4881 24.3834 65 24.375C37.2125 24.375 16.25 34.8481 16.25 48.75V89.375C16.25 93.3887 18.0578 97.0734 20.8203 100.039C23.5828 103.005 27.3406 105.402 31.7403 107.404C40.5275 111.402 52.1625 113.75 65 113.75C77.8375 113.75 89.4684 111.402 98.2637 107.4C102.659 105.402 106.417 103.005 109.18 100.039C111.942 97.0734 113.75 93.3887 113.75 89.375V48.75C113.75 42.7496 109.781 37.4156 103.086 33.2597L113.876 28.0596L110.451 20.6943ZM24.375 62.5868C28.5025 65.6987 34.0397 68.254 40.625 70.0781V102.196C38.5938 101.562 36.7372 100.815 35.0391 100.039C31.3584 98.3571 28.5472 96.3421 26.7881 94.4531C25.025 92.564 24.375 90.9797 24.375 89.375V62.5868ZM105.625 62.5868V89.375C105.625 90.9797 104.975 92.564 103.212 94.4531C101.453 96.3421 98.6416 98.3531 94.9609 100.039C93.2628 100.815 91.4062 101.562 89.375 102.196V70.0781C95.9603 68.25 101.497 65.6987 105.625 62.5868ZM48.75 71.8534C54.1226 72.7226 59.5576 73.1479 65 73.125C70.4424 73.1479 75.8774 72.7226 81.25 71.8534V104.102C76.2531 105.036 70.7769 105.625 65 105.625C59.2231 105.625 53.7469 105.036 48.75 104.102V71.8534Z" fill="#ECF4D6"/>
</svg>
