<svg width="130" height="130" viewBox="0 0 130 130" fill="none" xmlns="http://www.w3.org/2000/svg">
<path d="M99.0763 0L81.3456 0.855826L10.8793 57.1407L84.1186 42.449C85.7432 41.1367 87.1718 39.8815 88.4323 38.7119L78.2644 12.8374L82.6061 11.0687L92.0456 35.0889C107.479 17.9153 86.3315 14.8058 99.0763 0ZM93.6702 39.1968L89.9728 42.5916L92.6619 49.4668C90.1129 49.3526 87.2838 49.2956 84.1186 49.2671L10.8793 63.9873C10.8793 63.9873 10.9746 64.6149 11.1146 65.5563C11.7757 69.9781 8.94939 74.1716 4.65256 75.1415C2.15121 75.7121 0 76.1971 0 76.1971L1.10642 82.2449L94.7066 90.9458L130 75.5695L129.748 63.1885C107.031 60.7066 126.555 51.9487 97.8158 49.7806L93.6702 39.1968ZM17.1397 72.517L94.0624 78.8501L88.9925 83.4431L10.3723 76.0544L17.1397 72.517ZM16.7615 87.8078L20.585 115.508L19.613 117.277L19.7139 121.784L24.5121 122.241L29.3019 120.472V116.706L27.9574 115.594L30.5063 89.063L16.7615 87.8078ZM45.2119 91.2596V112.798L74.6791 115.365V93.9127L70.0013 93.4847V110.23L49.8897 108.519V91.6875L45.2119 91.2596ZM103.978 92.0298L95.743 95.1393L88.7964 94.5688L93.1661 122.925L92.0736 124.38L92.2977 129.515L97.0875 130L101.541 127.889L101.625 124.123L100.533 123.011L103.978 92.0298ZM45.52 117.591L37.565 120.301L38.4333 124.409L67.0882 127.29L72.9704 125.179L73.2785 119.958L45.52 117.591Z" fill="#ECF4D6"/>
</svg>
