<svg width="130" height="130" viewBox="0 0 130 130" fill="none" xmlns="http://www.w3.org/2000/svg">
<path d="M0 0V11.9324H8.44156V0H0ZM13.5065 0V11.9324H21.9481V0H13.5065ZM27.013 0V11.9324H35.4545V0H27.013ZM40.5195 0V11.9324H48.961V0H40.5195ZM54.026 0V11.9324H62.4675V0H54.026ZM67.5325 0V11.9324H75.974V0H67.5325ZM81.039 0V11.9324H89.4805V0H81.039ZM94.5454 0V11.9324H102.987V0H94.5454ZM108.052 0V11.9324H116.493V0H108.052ZM121.558 0V11.9324H130V0H121.558ZM0 17.5845V27.0048H130V17.5845H0ZM0 32.657V115.814C2.18355 113.068 5.02554 109.874 8.44156 106.332V32.657H0ZM13.5065 32.657V101.237C16.1045 98.697 18.9333 96.0336 21.9481 93.2945V32.657H13.5065ZM27.013 32.657V88.78C29.7968 86.3452 32.6109 83.954 35.4545 81.607V32.657H27.013ZM40.5195 32.657V77.496C42.0005 76.313 43.4891 75.1417 44.9851 73.9823C46.2963 72.9671 47.6245 71.9556 48.961 70.947V32.657H40.5195ZM54.026 32.657V67.1902C56.8142 65.157 59.6284 63.1682 62.4675 61.2247V32.657H54.026ZM67.5325 32.657V57.8293C70.3189 55.9995 73.1332 54.223 75.974 52.5005V32.657H67.5325ZM81.039 32.657V49.5099C83.823 47.9113 86.6375 46.3796 89.4805 44.9159V32.657H81.039ZM94.5454 32.657V42.4158C97.3776 41.0718 100.196 39.8284 102.987 38.7089V32.657H94.5454ZM108.052 32.657V36.8019C110.906 35.8002 113.723 34.9383 116.493 34.2333V32.657H108.052ZM130 37.7565C127.298 37.9094 124.476 38.2998 121.558 38.9027V44.5894H130V37.7565ZM116.493 40.1304C113.743 40.8903 110.924 41.8129 108.052 42.8818V49.6135H116.493V40.1304ZM102.987 44.893C100.206 46.0627 97.3874 47.3533 94.5454 48.7481V54.6377H102.987V44.893ZM89.4805 51.3334C86.6386 52.8362 83.8241 54.403 81.039 56.0328V64.686H89.4805V51.3334ZM75.974 59.0756C73.1335 60.8256 70.3192 62.6283 67.5325 64.4828V74.7343H75.974V59.0756ZM62.4675 67.9231C59.6271 69.8926 56.8129 71.909 54.026 73.9716V84.7826H62.4675V67.9234V67.9231ZM48.961 77.7906C48.598 78.0691 48.2328 78.347 47.8721 78.6258C45.4006 80.5402 42.9496 82.4872 40.5195 84.4664V94.8309H48.961V77.7909V77.7906ZM35.4545 88.6616C32.6087 91.0598 29.7946 93.5044 27.013 95.9946V104.879H35.4545V88.6619V88.6616ZM21.9481 100.621C18.8748 103.487 16.0437 106.238 13.5065 108.814V119.952H21.9481V100.621ZM8.44156 114.149C6.32132 116.477 4.53509 118.578 3.15996 120.362C1.99502 121.872 1.11879 123.167 0.588095 124.115C0.0571213 125.064 0 125.781 0 125.29V130H8.44156V114.149Z" fill="#ECF4D6"/>
</svg>
